<svg xmlns="http://www.w3.org/2000/svg" viewBox="0 0 543 314"><defs><clipPath id="a"><path d="M0 0h543v314H0z"/></clipPath><filter id="b" width="559.4" height="345" x="-11.7" y="-10.5" filterUnits="userSpaceOnUse"><feOffset dy="20"/><feGaussianBlur result="blur" stdDeviation="20"/><feFlood flood-opacity=".2"/><feComposite in2="blur" operator="in"/><feComposite in="SourceGraphic"/></filter></defs><g clip-path="url(#a)"><g data-name="Grupo 12223" transform="translate(-337.7 -357.5)"><g filter="url(#b)" transform="translate(337.6 357.5)"><g fill="#f5f6fa" data-name="Caminho 10058"><path d="M482.8 254H53.4c-2.5 0-4.5-2-4.5-4.4v-215c0-2.5 2-4.5 4.5-4.5h429.4c2.5 0 4.5 2 4.5 4.5v215c0 2.5-2 4.5-4.5 4.5z"/><path fill="#f5f8fc" d="M53.4 30.6a4 4 0 00-4 4v215a4 4 0 004 4h429.4a4 4 0 004-4v-215a4 4 0 00-4-4H53.4m0-1h429.4a5 5 0 015 5v215a5 5 0 01-5 5H53.4a5 5 0 01-5-5v-215a5 5 0 015-5z"/></g></g><path fill="#f6f8fe" d="M391 387h429.4a5 5 0 015 5v18.7H386V392a5 5 0 015-5z" data-name="Retângulo 718"/><circle cx="3.2" cy="3.2" r="3.2" fill="#e7f0f7" data-name="Elipse 62" transform="translate(393.6 394.8)"/><rect width="347.1" height="13" fill="#fff" data-name="Retângulo 719" rx="4" transform="translate(446.5 392)"/><circle cx="3.2" cy="3.2" r="3.2" fill="#e7f0f7" data-name="Elipse 62" transform="translate(404.4 394.8)"/><circle cx="3.2" cy="3.2" r="3.2" fill="#e7f0f7" data-name="Elipse 62" transform="translate(415.3 394.8)"/><path fill="#e7f0f7" d="M808.6 399.2a3 3 0 01-5.8 0 .3.3 0 01.5 0 2.4 2.4 0 102.4-2.3h-.2l.5.4a.3.3 0 01-.4.4l-1-1a.3.3 0 010-.3l1-1a.3.3 0 01.4.5l-.5.4h.2a3 3 0 012.9 3z" data-name="Caminho 228"/></g><path fill="#fff" d="M48 53h92v202H48z" data-name="Retângulo 1392"/><rect width="69" height="7" fill="#f6f8fe" data-name="Retângulo 1393" rx="3.5" transform="translate(60 64)"/><rect width="69" height="7" fill="#f6f8fe" data-name="Retângulo 1394" rx="3.5" transform="translate(60 75)"/><rect width="69" height="7" fill="#f6f8fe" data-name="Retângulo 1395" rx="3.5" transform="translate(60 86)"/><rect width="69" height="17" fill="#f6f8fe" data-name="Retângulo 1396" rx="4" transform="translate(60 104)"/><rect width="37" height="9" fill="#f6f8fe" data-name="Retângulo 1397" rx="4" transform="translate(94 242)"/><path fill="none" stroke="#8b93a7" d="M449.5 134s-39-6-87.3 5.7-62.3 31.8-62.3 31.8"/><path fill="none" stroke="#8b93a7" d="M301.6 155l-1.8 16.7 16.8-1.7" data-name="Caminho 10262"/><path fill="#e2e5e7" d="M474.5 107.5a3.4 3.4 0 00-3.4 3.4v47.5a3.4 3.4 0 003.4 3.4h34a3.4 3.4 0 003.3-3.4v-37.3l-13.6-13.6z" data-name="Caminho 10062"/><path fill="#b0b7bd" d="M501.6 121h10.2l-13.6-13.5v10.2a3.4 3.4 0 003.4 3.4z" data-name="Caminho 10063"/><path fill="#cad1d8" d="M511.8 131.3L501.6 121h10.2z" data-name="Caminho 10064"/><path fill="#f15642" d="M505 151.6a1.7 1.7 0 01-1.7 1.7H466a1.7 1.7 0 01-1.7-1.7v-17a1.7 1.7 0 011.7-1.7h37.3a1.7 1.7 0 011.7 1.7z" data-name="Caminho 10065"/><g fill="#fff" data-name="Grupo 12110"><path d="M471.7 139.6a1 1 0 011-.9h3a3.4 3.4 0 010 6.8h-2.2v1.8a.9.9 0 01-.9 1 1 1 0 01-.9-1zm1.8.8v3.4h2.3a1.7 1.7 0 000-3.4z" data-name="Caminho 10066"/><path d="M481.8 148.2a.8.8 0 01-1-.8v-7.7a1 1 0 011-.9h3c6.3 0 6.1 9.4.2 9.4zm.8-7.7v6h2.3c3.6 0 3.8-6 0-6z" data-name="Caminho 10067"/><path d="M493.1 140.6v2.1h3.5a1 1 0 011 1 1 1 0 01-1 .8h-3.5v2.9a.8.8 0 01-.8.8.9.9 0 01-1-.8v-7.7a.9.9 0 011-.9h4.8a.8.8 0 011 .9 1 1 0 01-1 .9h-4z" data-name="Caminho 10068"/></g><path fill="#cad1d8" d="M503.3 153.3h-32.2v1.7h32.2a1.7 1.7 0 001.7-1.7v-1.7a1.7 1.7 0 01-1.7 1.7z" data-name="Caminho 10069"/></g></svg>