<svg xmlns="http://www.w3.org/2000/svg" viewBox="0 0 543 474"><defs><filter id="b" width="537" height="497" x="3" y="-8" filterUnits="userSpaceOnUse"><feOffset dy="20"/><feGaussianBlur result="blur" stdDeviation="20"/><feFlood flood-opacity=".2"/><feComposite in2="blur" operator="in"/><feComposite in="SourceGraphic"/></filter><filter id="c" width="388" height="117" x="91" y="198" filterUnits="userSpaceOnUse"><feOffset dy="10"/><feGaussianBlur result="blur-2" stdDeviation="5"/><feFlood flood-opacity=".2"/><feComposite in2="blur-2" operator="in"/><feComposite in="SourceGraphic"/></filter><filter id="d" width="85" height="60" x="372" y="108" filterUnits="userSpaceOnUse"><feOffset dx="-5"/><feGaussianBlur result="blur-3" stdDeviation="5"/><feFlood flood-color="#fff"/><feComposite in2="blur-3" operator="in"/><feComposite in="SourceGraphic"/></filter><filter id="e" width="85" height="60" x="371" y="206" filterUnits="userSpaceOnUse"><feOffset dx="-5"/><feGaussianBlur result="blur-4" stdDeviation="5"/><feFlood flood-color="#fff"/><feComposite in2="blur-4" operator="in"/><feComposite in="SourceGraphic"/></filter><filter id="f" width="85" height="60" x="371" y="304" filterUnits="userSpaceOnUse"><feOffset dx="-5"/><feGaussianBlur result="blur-5" stdDeviation="5"/><feFlood flood-color="#fff"/><feComposite in2="blur-5" operator="in"/><feComposite in="SourceGraphic"/></filter><clipPath id="a"><path d="M0 0h543v474H0z"/></clipPath></defs><g clip-path="url(#a)"><g data-name="Grupo 12228" transform="translate(-3942 17395)"><g filter="url(#b)" transform="translate(3942 -17395)"><rect width="417" height="377" fill="#fff" data-name="Retângulo 1169" rx="7" transform="translate(63 32)"/></g><text fill="#14112d" font-family="Lato-Bold, Lato" font-size="22" font-weight="700" transform="translate(4021 -17317)"><tspan x="0" y="0">Signatários</tspan></text><text fill="#7c8791" data-name="1" font-family="Lato-Bold, Lato" font-size="22" font-weight="700" transform="translate(4021 -17262)"><tspan x="0" y="0">1</tspan></text><text fill="#7c8791" data-name="2" font-family="Lato-Bold, Lato" font-size="22" font-weight="700" transform="translate(4020 -17164)"><tspan x="0" y="0">2</tspan></text><g fill="#fff" stroke="#eceff2" data-name="Retângulo 1149" transform="translate(4048 -17094)"><rect width="358" height="87" stroke="none" rx="5"/><rect width="357" height="86" x=".5" y=".5" fill="none" rx="4.5"/></g><g fill="none" stroke="#e6eaee" data-name="Retângulo 1153" transform="translate(4055 -17084)"><rect width="343" height="44.9" stroke="none" rx="6"/><rect width="342" height="43.9" x=".5" y=".5" rx="5.5"/></g><path fill="#fff" d="M4064-17091h109v15h-109z" data-name="Retângulo 1156"/><text fill="#7c8791" data-name="3" font-family="Lato-Bold, Lato" font-size="22" font-weight="700" transform="translate(4020 -17066)"><tspan x="0" y="0">3</tspan></text><g fill="#fff" stroke="#eceff2" data-name="Retângulo 1147" transform="translate(4049 -17290)"><rect width="358" height="87" stroke="none" rx="5"/><rect width="357" height="86" x=".5" y=".5" fill="none" rx="4.5"/></g><g filter="url(#c)" transform="translate(3942 -17395)"><g fill="#fff" stroke="#eceff2" data-name="Retângulo 1148" transform="translate(106 203)"><rect width="358" height="87" stroke="none" rx="5"/><rect width="357" height="86" x=".5" y=".5" fill="none" rx="4.5"/></g></g><text fill="#1768e1" data-name="Me adicionar à lista" font-family="Lato-Regular, Lato" font-size="12" transform="translate(4291 -17318)"><tspan x="0" y="0">Me adicionar à lista</tspan></text><g fill="none" stroke="#1768e1" data-name="Retângulo 1150" transform="translate(4277 -17336)"><rect width="129" height="27" stroke="none" rx="4"/><rect width="128" height="26" x=".5" y=".5" rx="3.5"/></g><g fill="none" stroke="#e6eaee" data-name="Retângulo 1151" transform="translate(4056 -17280)"><rect width="343" height="44.9" stroke="none" rx="6"/><rect width="342" height="43.9" x=".5" y=".5" rx="5.5"/></g><g fill="none" stroke="#1768e1" data-name="Retângulo 1152" transform="translate(4055 -17182)"><rect width="343" height="44.9" stroke="none" rx="6"/><rect width="342" height="43.9" x=".5" y=".5" rx="5.5"/></g><text fill="#7c8791" font-family="Lato-Regular, Lato" font-size="14" transform="translate(4056 -17215)"><tspan x="0" y="0">Papel:</tspan></text><text fill="#7c8791" data-name="Papel:" font-family="Lato-Regular, Lato" font-size="14" transform="translate(4055 -17117)"><tspan x="0" y="0">Papel:</tspan></text><text fill="#7c8791" data-name="Papel:" font-family="Lato-Regular, Lato" font-size="14" transform="translate(4055 -17019)"><tspan x="0" y="0">Papel:</tspan></text><text fill="#7c8791" data-name="Nome do signatário" font-family="Lato-Regular, Lato" font-size="12" transform="translate(4068 -17079)"><tspan x="0" y="0">Nome do signatário</tspan></text><path fill="#fff" d="M4065-17287h109v15h-109z" data-name="Retângulo 1154"/><path fill="#fff" d="M4064-17189h109v15h-109z" data-name="Retângulo 1155"/><text fill="#14112d" data-name="cassiano@autentique.com.br" font-family="Lato-Regular, Lato" font-size="14" transform="translate(4069 -17252)"><tspan x="0" y="0">cassiano@autentique.com.br</tspan></text><text fill="#14112d" data-name="ronaldo@autentique.com.br" font-family="Lato-Regular, Lato" font-size="14" transform="translate(4068 -17154)"><tspan x="0" y="0">ronaldo@autentique.com.br</tspan></text><text fill="#14112d" data-name="Ederson Szlachta" font-family="Lato-Regular, Lato" font-size="14" transform="translate(4068 -17056)"><tspan x="0" y="0">Ederson Szlachta</tspan></text><text fill="#7c8791" data-name="Email do signatário" font-family="Lato-Regular, Lato" font-size="12" transform="translate(4069 -17275)"><tspan x="0" y="0">Email do signatário</tspan></text><text fill="#7c8791" data-name="Email do signatário" font-family="Lato-Regular, Lato" font-size="12" transform="translate(4068 -17177)"><tspan x="0" y="0">Email do signatário</tspan></text><g filter="url(#d)" transform="translate(3942 -17395)"><path fill="#fff" d="M392 123h55v30h-55z" data-name="Retângulo 1163"/></g><g filter="url(#e)" transform="translate(3942 -17395)"><path fill="#fff" d="M391 221h55v30h-55z" data-name="Retângulo 1164"/></g><g filter="url(#f)" transform="translate(3942 -17395)"><path fill="#fff" d="M391 319h55v30h-55z" data-name="Retângulo 1165"/></g><text fill="#1768e1" font-family="Lato-Regular, Lato" font-size="14" transform="translate(4343 -17251)"><tspan x="0" y="0">Email</tspan></text><text fill="#1768e1" data-name="Email" font-family="Lato-Regular, Lato" font-size="14" transform="translate(4342 -17153)"><tspan x="0" y="0">Email</tspan></text><text fill="#1768e1" font-family="Lato-Regular, Lato" font-size="14" transform="translate(4349 -17055)"><tspan x="0" y="0">Link</tspan></text><path fill="#07f" d="M4388.6-17258.2l-.1-.1a.3.3 0 00-.4 0l-4 4-4.1-4a.3.3 0 00-.4 0l-.1.1a.3.3 0 000 .4l4.4 4.4a.3.3 0 00.3 0l4.4-4.4a.2.2 0 000-.4z"/><path fill="#07f" d="M4387.6-17160.2l-.1-.1a.3.3 0 00-.4 0l-4 4-4.1-4a.3.3 0 00-.4 0l-.1.1a.3.3 0 000 .4l4.4 4.4a.3.3 0 00.3 0l4.4-4.4a.2.2 0 000-.4zM4387.6-17062.2l-.1-.1a.3.3 0 00-.4 0l-4 4-4.1-4a.3.3 0 00-.4 0l-.1.1a.3.3 0 000 .4l4.4 4.4a.3.3 0 00.3 0l4.4-4.4a.2.2 0 000-.4z" data-name="chevron-down"/><rect width="75" height="20" fill="#e6eaee" data-name="Retângulo 1166" rx="5" transform="translate(4097 -17230)"/><rect width="75" height="20" fill="#e6eaee" data-name="Retângulo 1167" rx="5" transform="translate(4096 -17132)"/><rect width="75" height="20" fill="#e6eaee" data-name="Retângulo 1168" rx="5" transform="translate(4096 -17034)"/><path fill="#07f" d="M4163-17221.5l-.1-.2a.3.3 0 00-.4 0l-4.5 4.6-4.5-4.6a.3.3 0 00-.4 0l-.2.2a.3.3 0 000 .4l4.9 4.9a.3.3 0 00.4 0l4.9-4.9a.3.3 0 000-.4zM4162-17123.5l-.1-.2a.3.3 0 00-.4 0l-4.5 4.6-4.5-4.6a.3.3 0 00-.4 0l-.2.2a.3.3 0 000 .4l4.9 4.9a.3.3 0 00.4 0l4.9-4.9a.3.3 0 000-.4zM4162-17025.5l-.1-.2a.3.3 0 00-.4 0l-4.5 4.6-4.5-4.6a.3.3 0 00-.4 0l-.2.2a.3.3 0 000 .4l4.9 4.9a.3.3 0 00.4 0l4.9-4.9a.3.3 0 000-.4z" data-name="chevron-down"/><path fill="#dce0e6" d="M4037.1-17269.2h6a.6.6 0 01.3 1l-3 3a.6.6 0 01-.8 0l-3-3a.6.6 0 01.5-1zm6.3-2.6l-3-3a.6.6 0 00-.8 0l-3 3a.6.6 0 00.5 1h6a.6.6 0 00.3-1z"/><path fill="#dce0e6" d="M4036.1-17171.2h6a.6.6 0 01.3 1l-3 3a.6.6 0 01-.8 0l-3-3a.6.6 0 01.5-1zm6.3-2.6l-3-3a.6.6 0 00-.8 0l-3 3a.6.6 0 00.5 1h6a.6.6 0 00.3-1zM4036.1-17073.2h6a.6.6 0 01.3 1l-3 3a.6.6 0 01-.8 0l-3-3a.6.6 0 01.5-1zm6.3-2.6l-3-3a.6.6 0 00-.8 0l-3 3a.6.6 0 00.5 1h6a.6.6 0 00.3-1z" data-name="sort.2"/><text fill="#1768e1" font-family="Lato-Regular, Lato" font-size="14" transform="translate(4103 -17215)"><tspan x="0" y="0">Assinar</tspan></text><text fill="#1768e1" data-name="Assinar" font-family="Lato-Regular, Lato" font-size="14" transform="translate(4102 -17117)"><tspan x="0" y="0">Assinar</tspan></text><text fill="#1768e1" data-name="Assinar" font-family="Lato-Regular, Lato" font-size="14" transform="translate(4102 -17019)"><tspan x="0" y="0">Assinar</tspan></text><g fill="none" stroke="#e6eaee" stroke-linecap="round" stroke-width="3" data-name="Grupo 12114"><path d="M4027.5-17250.5v58.5" data-name="Linha 26"/><path d="M4022.5-17198l5 6" data-name="Linha 29"/><path d="M4032.5-17198l-5 6" data-name="Linha 30"/></g><g fill="none" stroke="#e6eaee" stroke-linecap="round" stroke-width="3" data-name="Grupo 12115"><path d="M4027.5-17152.5v58.5" data-name="Linha 26"/><path d="M4022.5-17100l5 6" data-name="Linha 29"/><path d="M4032.5-17100l-5 6" data-name="Linha 30"/></g></g></g></svg>