<svg xmlns="http://www.w3.org/2000/svg" viewBox="0 0 543 395"><defs><clipPath id="a"><path d="M0 0h543v395H0z"/></clipPath><filter id="b" width="559.4" height="388.8" x="-7.7" y="5.5" filterUnits="userSpaceOnUse"><feOffset dy="20"/><feGaussianBlur result="blur" stdDeviation="20"/><feFlood flood-opacity=".2"/><feComposite in2="blur" operator="in"/><feComposite in="SourceGraphic"/></filter></defs><g clip-path="url(#a)"><g data-name="Grupo 12225" transform="translate(-333.7 -341.5)"><g filter="url(#b)" transform="translate(333.6 341.5)"><g fill="#f5f6fa" data-name="Caminho 10058"><path d="M486.8 313.9H57.4c-2.5 0-4.5-2.5-4.5-5.5V51.5c0-3 2-5.5 4.5-5.5h429.4c2.5 0 4.5 2.5 4.5 5.5v257c0 3-2 5.4-4.5 5.4z"/><path fill="#f5f8fc" d="M57.4 46.5c-2.3 0-4 2.3-4 5v257c0 2.7 1.7 4.9 4 4.9h429.4c2.2 0 4-2.2 4-5V51.5c0-2.7-1.8-5-4-5H57.4m0-1h429.4c2.7 0 5 2.7 5 6v257c0 3.2-2.3 5.9-5 5.9H57.4c-2.8 0-5-2.7-5-6V51.5c0-3.3 2.2-6 5-6z"/></g></g><path fill="#f6f8fe" d="M391 387h429.4a5 5 0 015 5v18.7H386V392a5 5 0 015-5z" data-name="Retângulo 718"/><circle cx="3.2" cy="3.2" r="3.2" fill="#e7f0f7" data-name="Elipse 62" transform="translate(393.6 394.8)"/><rect width="347.1" height="13" fill="#fff" data-name="Retângulo 719" rx="4" transform="translate(446.5 392)"/><circle cx="3.2" cy="3.2" r="3.2" fill="#e7f0f7" data-name="Elipse 62" transform="translate(404.4 394.8)"/><circle cx="3.2" cy="3.2" r="3.2" fill="#e7f0f7" data-name="Elipse 62" transform="translate(415.3 394.8)"/><path fill="#e7f0f7" d="M808.6 399.2a3 3 0 01-5.8 0 .3.3 0 01.5 0 2.4 2.4 0 102.4-2.3h-.2l.5.4a.3.3 0 01-.4.4l-1-1a.3.3 0 010-.3l1-1a.3.3 0 01.4.5l-.5.4h.2a3 3 0 012.9 3z" data-name="Caminho 228"/></g><path fill="#fff" d="M52 69h92v245H52z" data-name="Retângulo 1398"/><path fill="#fff" d="M199 80h244v234H199z" data-name="Retângulo 1399"/><rect width="69" height="7" fill="#f6f8fe" data-name="Retângulo 1400" rx="3.5" transform="translate(64 80)"/><rect width="69" height="7" fill="#f6f8fe" data-name="Retângulo 1401" rx="3.5" transform="translate(287 95)"/><rect width="219" height="4" fill="#f6f8fe" data-name="Retângulo 1402" rx="2" transform="translate(212 120)"/><rect width="219" height="4" fill="#f6f8fe" data-name="Retângulo 1403" rx="2" transform="translate(212 128)"/><rect width="219" height="4" fill="#f6f8fe" data-name="Retângulo 1404" rx="2" transform="translate(212 136)"/><rect width="219" height="4" fill="#f6f8fe" data-name="Retângulo 1405" rx="2" transform="translate(212 144)"/><rect width="207" height="4" fill="#f6f8fe" data-name="Retângulo 1406" rx="2" transform="translate(212 152)"/><rect width="219" height="4" fill="#f6f8fe" data-name="Retângulo 1407" rx="2" transform="translate(212 170)"/><rect width="219" height="4" fill="#f6f8fe" data-name="Retângulo 1415" rx="2" transform="translate(212 220)"/><rect width="219" height="4" fill="#f6f8fe" data-name="Retângulo 1408" rx="2" transform="translate(212 178)"/><rect width="219" height="4" fill="#f6f8fe" data-name="Retângulo 1416" rx="2" transform="translate(212 228)"/><rect width="219" height="4" fill="#f6f8fe" data-name="Retângulo 1409" rx="2" transform="translate(212 186)"/><rect width="175" height="4" fill="#f6f8fe" data-name="Retângulo 1417" rx="2" transform="translate(212 236)"/><rect width="219" height="4" fill="#f6f8fe" data-name="Retângulo 1410" rx="2" transform="translate(212 194)"/><rect width="63" height="4" fill="#f6f8fe" data-name="Retângulo 1411" rx="2" transform="translate(212 202)"/><rect width="42" height="4" fill="#f6f8fe" data-name="Retângulo 1418" rx="2" transform="translate(223 286)"/><rect width="42" height="4" fill="#f6f8fe" data-name="Retângulo 1419" rx="2" transform="translate(301 286)"/><rect width="42" height="4" fill="#f6f8fe" data-name="Retângulo 1420" rx="2" transform="translate(370 286)"/><rect width="69" height="7" fill="#f6f8fe" data-name="Retângulo 1412" rx="3.5" transform="translate(64 91)"/><rect width="69" height="7" fill="#f6f8fe" data-name="Retângulo 1413" rx="3.5" transform="translate(64 102)"/><rect width="69" height="17" fill="#f6f8fe" data-name="Retângulo 1414" rx="4" transform="translate(64 120)"/><rect width="37" height="9" fill="#f6f8fe" data-name="Retângulo 1424" rx="4" transform="translate(98 298)"/><g fill="rgba(24,96,225,0.12)" stroke="#1860e1" data-name="Retângulo 1421" transform="translate(220 268)"><rect width="49" height="14" stroke="none" rx="2"/><rect width="48" height="13" x=".5" y=".5" fill="none" rx="1.5"/></g><g fill="rgba(24,96,225,0.12)" stroke="#1860e1" data-name="Retângulo 1422" transform="translate(297 268)"><rect width="49" height="14" stroke="none" rx="2"/><rect width="48" height="13" x=".5" y=".5" fill="none" rx="1.5"/></g><g fill="rgba(24,96,225,0.12)" stroke="#1860e1" data-name="Retângulo 1423" transform="translate(366 268)"><rect width="49" height="14" stroke="none" rx="2"/><rect width="48" height="13" x=".5" y=".5" fill="none" rx="1.5"/></g></g></svg>