<svg xmlns="http://www.w3.org/2000/svg" viewBox="0 0 543 420"><defs><filter id="b" width="506" height="316" x="-17" y="115" filterUnits="userSpaceOnUse"><feOffset dy="20"/><feGaussianBlur result="blur" stdDeviation="20"/><feFlood flood-opacity=".2"/><feComposite in2="blur" operator="in"/><feComposite in="SourceGraphic"/></filter><filter id="c" width="506" height="319" x="51" y="12" filterUnits="userSpaceOnUse"><feOffset dy="20"/><feGaussianBlur result="blur-2" stdDeviation="20"/><feFlood flood-opacity=".2"/><feComposite in2="blur-2" operator="in"/><feComposite in="SourceGraphic"/></filter><clipPath id="a"><path d="M0 0h543v420H0z"/></clipPath></defs><g clip-path="url(#a)"><g data-name="Grupo 12226" transform="translate(-136 -3668)"><g filter="url(#b)" transform="translate(136 3668)"><rect width="386" height="196" fill="#00c4a2" data-name="Retângulo 983" rx="4" transform="translate(43 155)"/></g><rect width="386" height="196" fill="#e6eaee" data-name="Retângulo 984" rx="4" transform="translate(179 3829)"/><rect width="384" height="196" fill="#fff" data-name="Retângulo 985" rx="4" transform="translate(180 3826)"/><text fill="#14112d" data-name="Ronaldo Fuzinato" font-family="Lato-Bold, Lato" font-size="16" font-weight="700" transform="translate(237 3879)"><tspan x="0" y="0">Ronaldo Fuzinato</tspan></text><text fill="#00c4a2" font-family="Lato-Regular, Lato" font-size="14" transform="translate(192 3847)"><tspan x="0" y="0">Signatário</tspan></text><rect width="51" height="16" fill="#00c4a2" data-name="Retângulo 986" opacity=".2" rx="4" transform="translate(261 3835)"/><text fill="#00c4a2" font-family="Lato-Regular, Lato" font-size="12" transform="translate(265 3847)"><tspan x="0" y="0">Assinou</tspan></text><g fill="#f5f6fa" stroke="#e6eaee" data-name="Elipse 171" transform="translate(195 3863)"><circle cx="15.5" cy="15.5" r="15.5" stroke="none"/><circle cx="15.5" cy="15.5" r="15" fill="none"/></g><path fill="#7c8791" d="M247 3898h2.5a.2.2 0 00.2-.2v-.4a.2.2 0 00-.2-.2H247a.2.2 0 00-.2.2v.4a.2.2 0 00.2.1zm0-1.5h2.5a.2.2 0 00.2-.2v-.3a.2.2 0 00-.2-.2H247a.2.2 0 00-.2.2v.3a.2.2 0 00.2.2zm0 2.9h2.5a.2.2 0 00.2-.2v-.4a.2.2 0 00-.2-.1H247a.2.2 0 00-.2.1v.4a.2.2 0 00.2.2zm-3.8-.7a1.8 1.8 0 10-1.8-1.8 1.8 1.8 0 001.8 1.8zm0-3a1 1 0 11-1.1 1.2 1 1 0 011-1.1zm7.2-4.3h-10.1a1.4 1.4 0 00-1.4 1.5v7.2a1.4 1.4 0 001.4 1.5h10.1a1.4 1.4 0 001.5-1.5v-7.2a1.4 1.4 0 00-1.5-1.5zm-5.4 9.4h-3.6v-.3a.8.8 0 01.1-.5.7.7 0 01.6-.3 8 8 0 001 .2 8.1 8.1 0 001.1-.2.7.7 0 01.7.3.8.8 0 01.1.5v.3zm6.1-.7a.7.7 0 01-.7.7h-4.7v-.3a1.5 1.5 0 00-.2-.9 1.5 1.5 0 00-1.3-.6l-1 .2-1-.2a1.4 1.4 0 00-1.3.6 1.5 1.5 0 00-.2.9v.3h-.4a.7.7 0 01-.7-.7v-5.8H251zm0-6.5h-11.5v-.7a.7.7 0 01.7-.7h10.1a.7.7 0 01.7.7zM363.8 3891.3h-1v-1.2a.3.3 0 00-.4-.3h-.1a.3.3 0 00-.3.3v1.2h-4.5v-1.2a.3.3 0 00-.3-.3h-.2a.3.3 0 00-.3.3v1.2h-1.1a1.1 1.1 0 00-1.1 1.2v8.2a1.1 1.1 0 001.1 1.1h8.2a1.1 1.1 0 001.2-1.1v-8.2a1.1 1.1 0 00-1.2-1.2zm-8.2.8h8.2a.4.4 0 01.4.4v1h-9v-1a.4.4 0 01.4-.4zm8.2 9h-8.2a.4.4 0 01-.4-.4v-6.4h9v6.4a.4.4 0 01-.4.4zm-5.9-3.8h-.9a.3.3 0 01-.3-.3v-.9a.3.3 0 01.3-.3h1a.3.3 0 01.2.3v1a.3.3 0 01-.3.2zm2.3 0h-1a.3.3 0 01-.2-.3v-.9a.3.3 0 01.3-.3h.9a.3.3 0 01.3.3v1a.3.3 0 01-.3.2zm2.2 0h-.9a.3.3 0 01-.3-.3v-.9a.3.3 0 01.3-.3h1a.3.3 0 01.2.3v1a.3.3 0 01-.3.2zm-2.2 2.3h-1a.3.3 0 01-.2-.3v-1a.3.3 0 01.3-.2h.9a.3.3 0 01.3.3v.9a.3.3 0 01-.3.3zm-2.3 0h-.9a.3.3 0 01-.3-.3v-1a.3.3 0 01.3-.2h1a.3.3 0 01.2.3v.9a.3.3 0 01-.3.3zm4.5 0h-.9a.3.3 0 01-.3-.3v-1a.3.3 0 01.3-.2h1a.3.3 0 01.2.3v.9a.3.3 0 01-.3.3z"/><path fill="#00a6fd" d="M254.5 3917.8v.4a9.3 9.3 0 01-9.3 9.4 9.3 9.3 0 01-5-1.5 6.8 6.8 0 00.8 0 6.6 6.6 0 004-1.4 3.3 3.3 0 01-3-2.2 4.1 4.1 0 00.6 0 3.5 3.5 0 00.9-.1 3.3 3.3 0 01-2.7-3.2 3.3 3.3 0 001.5.4 3.3 3.3 0 01-1-4.4 9.3 9.3 0 006.8 3.4 3.7 3.7 0 01-.1-.8 3.3 3.3 0 015.7-2.2 6.5 6.5 0 002-.8 3.3 3.3 0 01-1.4 1.8 6.6 6.6 0 001.9-.5 7 7 0 01-1.7 1.7z"/><path fill="#375a91" d="M273.7 3916.8h1.2v-2.1a16.9 16.9 0 00-1.8-.1 2.9 2.9 0 00-3 3.1v2H268v2.3h2v6h2.5v-6h2l.2-2.4h-2.2v-1.6c0-.7.2-1.2 1.2-1.2z"/><path fill="#ee0016" d="M300.3 3920.3a6.6 6.6 0 01-6.8 7 7.1 7.1 0 110-14.3 6.8 6.8 0 014.7 2l-2 1.8c-2.4-2.5-7.2-.6-7.2 3.4a4.5 4.5 0 004.5 4.5 3.8 3.8 0 004-3.1h-4v-2.5h6.7a6.2 6.2 0 01.1 1.2z"/><path fill="#1768e1" d="M326.7 3918.7a.2.2 0 01.3.2v6a1.4 1.4 0 01-1.4 1.3h-12.2a1.4 1.4 0 01-1.4-1.4v-6a.2.2 0 01.3 0l4.5 3.2c.6.5 1.7 1.4 2.7 1.4s2.1-1 2.7-1.4l4.5-3.3zm-7.2 3.8c.7 0 1.7-.9 2.1-1.2 4-2.8 4.2-3 5.1-3.8a.7.7 0 00.3-.5v-.6a1.4 1.4 0 00-1.4-1.4h-12.2a1.4 1.4 0 00-1.4 1.4v.6a.7.7 0 00.3.5l5 3.8c.5.3 1.5 1.2 2.2 1.2z"/><path fill="#00c9a5" d="M351.8 3916l-2.6-.7a.6.6 0 00-.7.4l-1.2 2.8a.6.6 0 00.1.7l1.6 1.3a9.4 9.4 0 01-4.5 4.5l-1.3-1.6a.6.6 0 00-.7-.1l-2.8 1.2a.6.6 0 00-.4.7l.6 2.6a.6.6 0 00.6.5 11.8 11.8 0 0011.8-11.8.6.6 0 00-.5-.6z"/><path fill="none" stroke="#e6eaee" d="M239.5 3941.5h312" data-name="Linha 106"/><path fill="#00c4a2" d="M225.2 3959.6l-10.2 10.2-3.5-3.6a.4.4 0 00-.7 0l-.4.4a.4.4 0 000 .6l4.3 4.3a.4.4 0 00.6 0l10.9-10.8a.4.4 0 000-.7l-.4-.4a.4.4 0 00-.6 0z"/><text fill="#14112d" data-name="Assinou o documento" font-family="Lato-Regular, Lato" font-size="14" transform="translate(240 3969)"><tspan x="0" y="0">Assinou o documento</tspan></text><text fill="#959cae" data-name="Em 27 Set de 2017 às 15:37 pelo IP 200.225.236.212 em Erechim-RS" font-family="Lato-Regular, Lato" font-size="12" transform="translate(240 3990)"><tspan x="0" y="0">Em 27 Set de 2017 às 15:37 pelo IP 200.225.236.212 em</tspan><tspan x="0" y="15">Erechim-RS</tspan></text><path fill="#07f" d="M548.1 3844.3a1.7 1.7 0 11-1.7 1.7 1.7 1.7 0 011.7-1.7zm-1.7-4.6a1.7 1.7 0 101.7-1.7 1.7 1.7 0 00-1.7 1.7zm0 12.6a1.7 1.7 0 101.7-1.7 1.7 1.7 0 00-1.7 1.7z"/><rect width="85" height="10" fill="#f6f8fe" data-name="Retângulo 1214" rx="4" transform="translate(258 3891)"/><rect width="85" height="10" fill="#f6f8fe" data-name="Retângulo 1215" rx="4" transform="translate(371 3891)"/></g><g data-name="Grupo 12227" transform="translate(-248 -3060)"><g filter="url(#c)" transform="translate(248 3060)"><rect width="386" height="199" fill="#7790b4" data-name="Retângulo 1208" rx="4" transform="translate(111 52)"/></g><rect width="386" height="199" fill="#e6eaee" data-name="Retângulo 1209" rx="4" transform="translate(359 3118)"/><rect width="384" height="199" fill="#fff" data-name="Retângulo 1210" rx="4" transform="translate(360 3115)"/><text fill="#14112d" data-name="Cassiano Calegari" font-family="Lato-Bold, Lato" font-size="16" font-weight="700" transform="translate(417 3168)"><tspan x="0" y="0">Cassiano Calegari</tspan></text><text fill="#7c8791" font-family="Lato-Regular, Lato" font-size="12" transform="translate(439 3188)"><tspan x="0" y="0">Autentique</tspan></text><text fill="#7c8791" data-name="Signatário" font-family="Lato-Regular, Lato" font-size="14" transform="translate(372 3136)"><tspan x="0" y="0">Signatário</tspan></text><rect width="128" height="16" fill="#7c8791" data-name="Retângulo 1211" opacity=".2" rx="4" transform="translate(441 3124)"/><text fill="#7c8791" data-name="aguardando assinatura" font-family="Lato-Regular, Lato" font-size="12" transform="translate(445 3136)"><tspan x="0" y="0">aguardando assinatura</tspan></text><g fill="#f5f6fa" stroke="#e6eaee" data-name="Elipse 356" transform="translate(375 3152)"><circle cx="15.5" cy="15.5" r="15.5" stroke="none"/><circle cx="15.5" cy="15.5" r="15" fill="none"/></g><path fill="#7c8791" d="M424.4 3180.5v1a.3.3 0 01-.3.2h-1a.3.3 0 01-.2-.3v-.9a.3.3 0 01.3-.3h.9a.3.3 0 01.3.3zm2.7-.3h-1a.3.3 0 00-.2.3v1a.3.3 0 00.3.2h.9a.3.3 0 00.3-.3v-.9a.3.3 0 00-.3-.3zm-3 2.3h-1a.3.3 0 00-.2.3v.9a.3.3 0 00.3.3h.9a.3.3 0 00.3-.3v-1a.3.3 0 00-.3-.2zm3 0h-1a.3.3 0 00-.2.3v.9a.3.3 0 00.3.3h.9a.3.3 0 00.3-.3v-1a.3.3 0 00-.3-.2zm-3 2.2h-1a.3.3 0 00-.2.3v1a.3.3 0 00.3.2h.9a.3.3 0 00.3-.3v-.9a.3.3 0 00-.3-.3zm3 0h-1a.3.3 0 00-.2.3v1a.3.3 0 00.3.2h.9a.3.3 0 00.3-.3v-.9a.3.3 0 00-.3-.3zm3.3 4.8v.5h-10.5v-.5a.3.3 0 01.3-.3h.4v-10.6a.6.6 0 01.6-.6h7.9a.6.6 0 01.5.6v10.7h.5a.3.3 0 01.3.2zm-1.5-.2v-10.6h-7.5v10.6h3v-2a.3.3 0 01.3-.3h.9a.3.3 0 01.3.3v2z"/><path fill="#7c8791" d="M427 3204h2.5a.2.2 0 00.2-.2v-.4a.2.2 0 00-.2-.2H427a.2.2 0 00-.2.2v.4a.2.2 0 00.2.1zm0-1.5h2.5a.2.2 0 00.2-.2v-.3a.2.2 0 00-.2-.2H427a.2.2 0 00-.2.2v.3a.2.2 0 00.2.2zm0 2.9h2.5a.2.2 0 00.2-.2v-.4a.2.2 0 00-.2-.1H427a.2.2 0 00-.2.1v.4a.2.2 0 00.2.2zm-3.8-.7a1.8 1.8 0 10-1.8-1.8 1.8 1.8 0 001.8 1.8zm0-3a1 1 0 11-1.1 1.2 1 1 0 011-1.1zm7.2-4.3h-10.1a1.4 1.4 0 00-1.4 1.5v7.2a1.4 1.4 0 001.4 1.5h10.1a1.4 1.4 0 001.5-1.5v-7.2a1.4 1.4 0 00-1.5-1.5zm-5.4 9.4h-3.6v-.3a.8.8 0 01.1-.5.7.7 0 01.6-.3 8 8 0 001 .2 8.1 8.1 0 001.1-.2.7.7 0 01.7.3.8.8 0 01.1.5v.3zm6.1-.7a.7.7 0 01-.7.7h-4.7v-.3a1.5 1.5 0 00-.2-.9 1.5 1.5 0 00-1.3-.6l-1 .2-1-.2a1.4 1.4 0 00-1.3.6 1.5 1.5 0 00-.2.9v.3h-.4a.7.7 0 01-.7-.7v-5.8H431zm0-6.5h-11.5v-.7a.7.7 0 01.7-.7h10.1a.7.7 0 01.7.7z" data-name="id-card"/><path fill="#7c8791" d="M543.8 3197.3h-1v-1.2a.3.3 0 00-.4-.3h-.1a.3.3 0 00-.3.3v1.2h-4.5v-1.2a.3.3 0 00-.3-.3h-.2a.3.3 0 00-.3.3v1.2h-1.1a1.1 1.1 0 00-1.1 1.2v8.2a1.1 1.1 0 001.1 1.1h8.2a1.1 1.1 0 001.2-1.1v-8.2a1.1 1.1 0 00-1.2-1.2zm-8.2.8h8.2a.4.4 0 01.4.4v1h-9v-1a.4.4 0 01.4-.4zm8.2 9h-8.2a.4.4 0 01-.4-.4v-6.4h9v6.4a.4.4 0 01-.4.4zm-5.9-3.8h-.9a.3.3 0 01-.3-.3v-.9a.3.3 0 01.3-.3h1a.3.3 0 01.2.3v1a.3.3 0 01-.3.2zm2.3 0h-1a.3.3 0 01-.2-.3v-.9a.3.3 0 01.3-.3h.9a.3.3 0 01.3.3v1a.3.3 0 01-.3.2zm2.2 0h-.9a.3.3 0 01-.3-.3v-.9a.3.3 0 01.3-.3h1a.3.3 0 01.2.3v1a.3.3 0 01-.3.2zm-2.2 2.3h-1a.3.3 0 01-.2-.3v-1a.3.3 0 01.3-.2h.9a.3.3 0 01.3.3v.9a.3.3 0 01-.3.3zm-2.3 0h-.9a.3.3 0 01-.3-.3v-1a.3.3 0 01.3-.2h1a.3.3 0 01.2.3v.9a.3.3 0 01-.3.3zm4.5 0h-.9a.3.3 0 01-.3-.3v-1a.3.3 0 01.3-.2h1a.3.3 0 01.2.3v.9a.3.3 0 01-.3.3z" data-name="calendar-alt"/><path fill="#00a6fd" d="M434.5 3223.8v.4a9.3 9.3 0 01-9.3 9.4 9.3 9.3 0 01-5-1.5 6.8 6.8 0 00.8 0 6.6 6.6 0 004-1.4 3.3 3.3 0 01-3-2.2 4.1 4.1 0 00.6 0 3.5 3.5 0 00.9-.1 3.3 3.3 0 01-2.7-3.2 3.3 3.3 0 001.5.4 3.3 3.3 0 01-1-4.4 9.3 9.3 0 006.8 3.4 3.7 3.7 0 01-.1-.8 3.3 3.3 0 015.7-2.2 6.5 6.5 0 002-.8 3.3 3.3 0 01-1.4 1.8 6.6 6.6 0 001.9-.5 7 7 0 01-1.7 1.7z" data-name="twitter"/><path fill="#375a91" d="M453.7 3222.8h1.2v-2.1a16.9 16.9 0 00-1.8-.1 2.9 2.9 0 00-3 3.1v2H448v2.3h2v6h2.5v-6h2l.2-2.4h-2.2v-1.6c0-.7.2-1.2 1.2-1.2z" data-name="facebook-f"/><path fill="#ee0016" d="M480.3 3226.3a6.6 6.6 0 01-6.8 7 7.1 7.1 0 110-14.3 6.8 6.8 0 014.7 2l-2 1.8c-2.4-2.5-7.2-.6-7.2 3.4a4.5 4.5 0 004.5 4.5 3.8 3.8 0 004-3.1h-4v-2.5h6.7a6.2 6.2 0 01.1 1.2z" data-name="google"/><path fill="#1768e1" d="M506.7 3224.7a.2.2 0 01.3.2v6a1.4 1.4 0 01-1.4 1.3h-12.2a1.4 1.4 0 01-1.4-1.4v-6a.2.2 0 01.3 0l4.5 3.2c.6.5 1.7 1.4 2.7 1.4s2.1-1 2.7-1.4l4.5-3.3zm-7.2 3.8c.7 0 1.7-.9 2.1-1.2 4-2.8 4.2-3 5.1-3.8a.7.7 0 00.3-.5v-.6a1.4 1.4 0 00-1.4-1.4h-12.2a1.4 1.4 0 00-1.4 1.4v.6a.7.7 0 00.3.5l5 3.8c.5.3 1.5 1.2 2.2 1.2z" data-name="envelope.2"/><path fill="#00c9a5" d="M531.8 3222l-2.6-.7a.6.6 0 00-.7.4l-1.2 2.8a.6.6 0 00.1.7l1.6 1.3a9.4 9.4 0 01-4.5 4.5l-1.3-1.6a.6.6 0 00-.7-.1l-2.8 1.2a.6.6 0 00-.4.7l.6 2.6a.6.6 0 00.6.5 11.8 11.8 0 0011.8-11.8.6.6 0 00-.5-.6z" data-name="phone.2"/><path fill="none" stroke="#e6eaee" d="M419.5 3247.5h312" data-name="Linha 407"/><path fill="#00c4a2" d="M405.2 3265.6l-10.2 10.2-3.5-3.6a.4.4 0 00-.7 0l-.4.4a.4.4 0 000 .6l4.3 4.3a.4.4 0 00.6 0l10.9-10.8a.4.4 0 000-.7l-.4-.4a.4.4 0 00-.6 0z" data-name="check"/><text fill="#14112d" data-name="Recebeu o email" font-family="Lato-Regular, Lato" font-size="14" transform="translate(420 3275)"><tspan x="0" y="0">Recebeu o email</tspan></text><text fill="#959cae" data-name="Em 27 Set de 2017 às 15:37" font-family="Lato-Regular, Lato" font-size="12" transform="translate(420 3296)"><tspan x="0" y="0">Em 27 Set de 2017 às 15:37</tspan></text><path fill="#07f" d="M728.1 3133.3a1.7 1.7 0 11-1.7 1.7 1.7 1.7 0 011.7-1.7zm-1.7-4.6a1.7 1.7 0 101.7-1.7 1.7 1.7 0 00-1.7 1.7zm0 12.6a1.7 1.7 0 101.7-1.7 1.7 1.7 0 00-1.7 1.7z" data-name="ellipsis-v.1"/><rect width="85" height="10" fill="#f6f8fe" data-name="Retângulo 1212" rx="4" transform="translate(438 3197)"/><rect width="46" height="10" fill="#f6f8fe" data-name="Retângulo 1213" rx="4" transform="translate(551 3197)"/></g></g></svg>