<svg xmlns="http://www.w3.org/2000/svg" viewBox="0 0 610 314"><defs><filter id="b" width="457.6" height="357.6" x="-6.7" y="-1.5" filterUnits="userSpaceOnUse"><feOffset dy="20"/><feGaussianBlur result="blur" stdDeviation="20"/><feFlood flood-opacity=".2"/><feComposite in2="blur" operator="in"/><feComposite in="SourceGraphic"/></filter><filter id="c" width="249" height="348" x="367" y="3" filterUnits="userSpaceOnUse"><feOffset dy="20"/><feGaussianBlur result="blur-2" stdDeviation="20"/><feFlood flood-opacity=".2"/><feComposite in2="blur-2" operator="in"/><feComposite in="SourceGraphic"/></filter><clipPath id="a"><path d="M0 0h610v314H0z"/></clipPath></defs><g clip-path="url(#a)"><g data-name="Grupo 12229" transform="translate(-1050 -1475)"><g data-name="Grupo 12158" transform="translate(717.3 1126.5)"><g filter="url(#b)" transform="translate(332.6 348.5)"><g fill="#f5f6fa" data-name="Caminho 10058"><path d="M387 275.7H57.3c-.9 0-1.7-.5-2.3-1.4-.7-.9-1-2.1-1-3.4v-227c0-1.4.3-2.6 1-3.5.6-.9 1.4-1.4 2.3-1.4H387c.8 0 1.7.5 2.3 1.4.6.9 1 2.1 1 3.4v227c0 1.4-.4 2.6-1 3.5-.6.9-1.5 1.4-2.3 1.4z"/><path fill="#f5f8fc" d="M57.2 39.5c-1.5 0-2.9 2-2.9 4.3v227c0 2.4 1.4 4.4 2.9 4.4H387c1.5 0 2.8-2 2.8-4.3v-227c0-2.4-1.3-4.4-2.8-4.4H57m0-1h330c2.1 0 3.8 2.4 3.8 5.3v227c0 3-1.7 5.4-3.8 5.4H57c-2 0-3.7-2.4-3.7-5.3v-227c0-3 1.7-5.4 3.8-5.4z"/></g></g><path fill="#f6f8fe" d="M391 387h327.6a5 5 0 015 5v18.7H386V392a5 5 0 015-5z" data-name="Retângulo 718"/><circle cx="3.2" cy="3.2" r="3.2" fill="#e7f0f7" data-name="Elipse 62" transform="translate(393.6 394.8)"/><rect width="245.3" height="13" fill="#fff" data-name="Retângulo 719" rx="4" transform="translate(446.5 392)"/><circle cx="3.2" cy="3.2" r="3.2" fill="#e7f0f7" data-name="Elipse 62" transform="translate(404.4 394.8)"/><circle cx="3.2" cy="3.2" r="3.2" fill="#e7f0f7" data-name="Elipse 62" transform="translate(415.3 394.8)"/><path fill="#e7f0f7" d="M706.8 399.2a3 3 0 01-5.9 0 .3.3 0 01.6 0 2.4 2.4 0 102.4-2.3h-.2l.5.4a.3.3 0 01-.4.4l-1-1a.3.3 0 010-.3l1-1a.3.3 0 01.4.5l-.5.4h.2a3 3 0 012.9 3z" data-name="Caminho 228"/></g><path fill="#fff" d="M1150 1589h244v125h-244z" data-name="Retângulo 1247"/><rect width="219" height="4" fill="#f6f8fe" data-name="Retângulo 1248" rx="2" transform="translate(1163 1598)"/><rect width="219" height="4" fill="#f6f8fe" data-name="Retângulo 1249" rx="2" transform="translate(1163 1606)"/><rect width="219" height="4" fill="#f6f8fe" data-name="Retângulo 1250" rx="2" transform="translate(1163 1614)"/><rect width="219" height="4" fill="#f6f8fe" data-name="Retângulo 1251" rx="2" transform="translate(1163 1622)"/><rect width="207" height="4" fill="#f6f8fe" data-name="Retângulo 1252" rx="2" transform="translate(1163 1630)"/><rect width="219" height="4" fill="#f6f8fe" data-name="Retângulo 1254" rx="2" transform="translate(1163 1678)"/><rect width="219" height="4" fill="#f6f8fe" data-name="Retângulo 1256" rx="2" transform="translate(1163 1686)"/><rect width="175" height="4" fill="#f6f8fe" data-name="Retângulo 1258" rx="2" transform="translate(1163 1694)"/><g data-name="Grupo 12159" transform="translate(-60 -80)"><rect width="118" height="20" fill="#185bde" data-name="Retângulo 1261" rx="2" transform="translate(1273 1725)"/><path fill="#fff" d="M1292 1739h-.8a.3.3 0 01-.2 0 .4.4 0 01-.1-.2l-.7-1.8h-3.2l-.7 1.8a.4.4 0 010 .1.3.3 0 01-.3.1h-.7l2.8-7.2h1zm-4.7-2.7h2.7l-1.2-2.9a5.4 5.4 0 01-.2-.7l-.1.4-.1.3zm8.9-1.5a.4.4 0 010 .1.2.2 0 01-.2 0 .3.3 0 01-.2 0 2.4 2.4 0 00-.2-.1 1.9 1.9 0 00-.3-.2 1.5 1.5 0 00-.5 0 1.5 1.5 0 00-.6 0 1.3 1.3 0 00-.5.5 1.7 1.7 0 00-.3.6 3 3 0 00-.1.8 2.9 2.9 0 000 .8 1.8 1.8 0 00.4.6 1.3 1.3 0 00.5.4 1.4 1.4 0 00.6 0 1.6 1.6 0 00.5 0 1.6 1.6 0 00.4-.2 2.6 2.6 0 00.2-.1.3.3 0 01.2-.1.2.2 0 01.1 0l.3.4a2 2 0 01-.8.6 3 3 0 01-1 .2 2.2 2.2 0 01-1-.2 2 2 0 01-.7-.5 2.4 2.4 0 01-.5-.8 3.3 3.3 0 01-.1-1.1 3.3 3.3 0 01.1-1 2.4 2.4 0 01.5-.9 2 2 0 01.7-.5 2.5 2.5 0 011-.2 2.4 2.4 0 011 .1 2.3 2.3 0 01.7.5zm3.2-1a2.3 2.3 0 01.8.2 1.9 1.9 0 01.7.5 2 2 0 01.5.7 2.7 2.7 0 01.1 1 .6.6 0 010 .2.2.2 0 01-.2 0h-3.4a2.8 2.8 0 00.2 1 1.7 1.7 0 00.3.5 1.3 1.3 0 00.5.4 1.7 1.7 0 00.6 0 2 2 0 00.6 0 2.7 2.7 0 00.4-.2 3.2 3.2 0 00.3-.1.4.4 0 01.2-.1.2.2 0 01.2 0l.2.4a1.7 1.7 0 01-.4.3 2.5 2.5 0 01-.5.3 3.1 3.1 0 01-.5.1 3.3 3.3 0 01-.5 0 2.6 2.6 0 01-1-.1 2.1 2.1 0 01-.8-.5 2.4 2.4 0 01-.5-.9 3.4 3.4 0 01-.2-1.1 3 3 0 01.2-1 2.3 2.3 0 01.5-.8 2.2 2.2 0 01.7-.6 2.4 2.4 0 011-.1zm0 .7a1.4 1.4 0 00-1 .4 1.8 1.8 0 00-.4 1h2.7a1.8 1.8 0 000-.5 1.3 1.3 0 00-.3-.5 1.1 1.1 0 00-.4-.3 1.4 1.4 0 00-.6 0zm6.1.3a.2.2 0 01-.1 0 .3.3 0 01-.2 0h-.2a2.2 2.2 0 00-.4-.2 1.6 1.6 0 00-.4 0 1.3 1.3 0 00-.4 0 1 1 0 00-.3.1.7.7 0 00-.2.3.6.6 0 000 .3.5.5 0 000 .3 1 1 0 00.3.2 2.6 2.6 0 00.4.2l.5.1.5.2a1.8 1.8 0 01.4.3 1.1 1.1 0 01.3.3 1.1 1.1 0 01.1.6 1.7 1.7 0 010 .6 1.4 1.4 0 01-.5.5 1.8 1.8 0 01-.6.4 2.5 2.5 0 01-.8 0 2.6 2.6 0 01-1 0 2.4 2.4 0 01-.7-.5l.2-.4a.3.3 0 01.1 0 .3.3 0 01.2-.1.3.3 0 01.2 0l.2.2a1.9 1.9 0 00.4.2 1.6 1.6 0 00.5 0 1.4 1.4 0 00.4 0 1 1 0 00.3-.2.7.7 0 00.2-.3.8.8 0 00.1-.3.5.5 0 00-.1-.3 1 1 0 00-.3-.3 2.4 2.4 0 00-.4-.2l-.5-.1-.5-.2a1.7 1.7 0 01-.4-.2 1.2 1.2 0 01-.3-.4 1.2 1.2 0 01-.1-.6 1.3 1.3 0 010-.5 1.4 1.4 0 01.4-.5 1.7 1.7 0 01.6-.3 2.3 2.3 0 01.8-.1 2.4 2.4 0 01.9.1 2.1 2.1 0 01.6.4zm4.4 0a.2.2 0 01-.2 0 .3.3 0 01-.2 0h-.2a2.2 2.2 0 00-.3-.2 1.6 1.6 0 00-.5 0 1.3 1.3 0 00-.4 0 1 1 0 00-.3.1.7.7 0 00-.2.3.6.6 0 000 .3.5.5 0 000 .3 1 1 0 00.4.2 2.6 2.6 0 00.4.2l.5.1.4.2a1.8 1.8 0 01.5.3 1.1 1.1 0 01.3.3 1.1 1.1 0 010 .6 1.7 1.7 0 010 .6 1.4 1.4 0 01-.4.5 1.8 1.8 0 01-.6.4 2.5 2.5 0 01-.8 0 2.6 2.6 0 01-1 0 2.4 2.4 0 01-.7-.5l.2-.4a.3.3 0 01.2-.1.3.3 0 01.2 0l.3.2a1.9 1.9 0 00.3.2 1.6 1.6 0 00.5 0 1.4 1.4 0 00.5 0 1 1 0 00.3-.2.7.7 0 00.2-.3.8.8 0 000-.3.5.5 0 000-.3 1 1 0 00-.4-.3 2.4 2.4 0 00-.4-.1l-.5-.2-.5-.2a1.7 1.7 0 01-.4-.2 1.2 1.2 0 01-.3-.4 1.2 1.2 0 01-.1-.6 1.3 1.3 0 01.1-.5 1.4 1.4 0 01.4-.5 1.7 1.7 0 01.5-.3 2.3 2.3 0 01.8-.1 2.4 2.4 0 01.9.1 2.1 2.1 0 01.7.4zm5.1 4.2h-.4a.5.5 0 01-.2 0 .2.2 0 010-.2l-.2-.5-.4.3a2.2 2.2 0 01-.4.3 2 2 0 01-.4.1 2.6 2.6 0 01-.5 0 1.8 1.8 0 01-.6 0 1.3 1.3 0 01-.4-.3 1.2 1.2 0 01-.3-.4 1.5 1.5 0 01-.1-.6 1.1 1.1 0 01.1-.5 1.4 1.4 0 01.6-.5 3.5 3.5 0 011-.4 7.3 7.3 0 011.4-.1v-.4a1.4 1.4 0 00-.3-1 1 1 0 00-.7-.2 1.6 1.6 0 00-.6 0 2 2 0 00-.4.2l-.2.2a.4.4 0 01-.3.1.3.3 0 01-.1 0 .4.4 0 01-.1-.2l-.2-.2a2.9 2.9 0 01.9-.7 2.8 2.8 0 011-.2 2 2 0 01.8.2 1.5 1.5 0 01.6.4 1.7 1.7 0 01.3.6 2.5 2.5 0 01.1.8zm-2.3-.5a1.8 1.8 0 00.5 0 1.7 1.7 0 00.3-.2 2 2 0 00.4-.2 2.9 2.9 0 00.3-.3v-1a7.4 7.4 0 00-1 0 3 3 0 00-.8.2 1 1 0 00-.4.3.6.6 0 000 .4.8.8 0 000 .3.7.7 0 00.2.3.7.7 0 00.2.1 1.2 1.2 0 00.3 0zm3.7.5v-5h.5a.3.3 0 01.2 0 .3.3 0 010 .2l.1.8a2.3 2.3 0 01.7-.9 1.4 1.4 0 01.9-.3 1.4 1.4 0 01.4 0 1.3 1.3 0 01.3.2l-.1.7a.1.1 0 01-.2.1.8.8 0 01-.2 0 1.4 1.4 0 00-.4 0 1.1 1.1 0 00-.8.2 2 2 0 00-.5.8v3.2zm8-5.1a2.6 2.6 0 011 .1 2.1 2.1 0 01.8.6 2.3 2.3 0 01.4.8 3.3 3.3 0 01.2 1 3.3 3.3 0 01-.2 1.1 2.3 2.3 0 01-.4.9 2 2 0 01-.8.5 2.6 2.6 0 01-1 .2 2.6 2.6 0 01-1-.2 2.1 2.1 0 01-.8-.5 2.3 2.3 0 01-.4-.9 3.2 3.2 0 01-.2-1 3.2 3.2 0 01.2-1.1 2.3 2.3 0 01.4-.8 2.1 2.1 0 01.8-.6 2.6 2.6 0 011-.1zm0 4.5a1.3 1.3 0 001.1-.5 2.3 2.3 0 00.4-1.4 2.3 2.3 0 00-.4-1.4 1.3 1.3 0 00-1.1-.5 1.6 1.6 0 00-.7 0 1.2 1.2 0 00-.4.5 1.7 1.7 0 00-.3.6 3.2 3.2 0 00-.1.8 3.2 3.2 0 000 .8 1.6 1.6 0 00.4.6 1.2 1.2 0 00.4.3 1.6 1.6 0 00.7.2zm9 .6a.2.2 0 01-.2-.2l-.1-.6a2.7 2.7 0 01-.8.6 1.9 1.9 0 01-1 .3 1.8 1.8 0 01-.7-.2 1.6 1.6 0 01-.6-.5 2.3 2.3 0 01-.4-.8 4.2 4.2 0 01-.1-1.1 3.5 3.5 0 01.1-1 2.5 2.5 0 01.5-.9 2 2 0 01.6-.6 2 2 0 011-.2 1.8 1.8 0 01.8.2 2 2 0 01.6.4v-2.8h.8v7.4zm-1.7-.7a1.4 1.4 0 00.7-.2 2.2 2.2 0 00.6-.5v-2.5a1.4 1.4 0 00-.5-.4 1.6 1.6 0 00-.6-.2 1.3 1.3 0 00-1.1.5 2.4 2.4 0 00-.4 1.5 3.7 3.7 0 000 .8 1.6 1.6 0 00.3.6 1 1 0 00.4.3 1.4 1.4 0 00.6.1zm5.8-4.5a2.6 2.6 0 011 .2 2.1 2.1 0 01.7.6 2.3 2.3 0 01.5.8 3.3 3.3 0 01.2 1 3.3 3.3 0 01-.2 1.1 2.3 2.3 0 01-.4.9 2 2 0 01-.8.5 2.6 2.6 0 01-1 .2 2.6 2.6 0 01-1-.2 2.1 2.1 0 01-.8-.5 2.3 2.3 0 01-.5-.9 3.2 3.2 0 01-.1-1 3.2 3.2 0 01.1-1.1 2.3 2.3 0 01.5-.8 2.1 2.1 0 01.8-.6 2.6 2.6 0 011-.1zm0 4.6a1.3 1.3 0 001.1-.5 2.3 2.3 0 00.4-1.4 2.3 2.3 0 00-.4-1.4 1.3 1.3 0 00-1.1-.5 1.6 1.6 0 00-.7 0 1.2 1.2 0 00-.4.5 1.7 1.7 0 00-.3.6 3.2 3.2 0 00-.1.8 3.2 3.2 0 000 .8 1.6 1.6 0 00.4.6 1.2 1.2 0 00.4.3 1.6 1.6 0 00.7.2zm7-3.6a.4.4 0 01-.1.1.2.2 0 01-.1 0 .3.3 0 01-.2 0 2.4 2.4 0 00-.2-.2 1.9 1.9 0 00-.4 0 1.5 1.5 0 00-.4-.2 1.5 1.5 0 00-.7.2 1.3 1.3 0 00-.5.4 1.7 1.7 0 00-.3.6 3 3 0 000 .8 2.9 2.9 0 000 .8 1.8 1.8 0 00.4.6 1.3 1.3 0 00.4.4 1.4 1.4 0 00.6 0 1.6 1.6 0 00.6 0 1.6 1.6 0 00.3-.2 2.6 2.6 0 00.2-.1.3.3 0 01.2-.1.2.2 0 01.2 0l.2.4a2 2 0 01-.8.6 3 3 0 01-1 .2 2.2 2.2 0 01-1-.2 2 2 0 01-.6-.5 2.4 2.4 0 01-.5-.8 3.3 3.3 0 01-.2-1.1 3.3 3.3 0 01.2-1 2.4 2.4 0 01.5-1 2 2 0 01.7-.4 2.5 2.5 0 011-.2 2.4 2.4 0 011 .1 2.3 2.3 0 01.7.5zm2-.9v3.3a1.3 1.3 0 00.2.8 1 1 0 00.8.4 1.5 1.5 0 00.7-.2 2.3 2.3 0 00.7-.5v-3.8h.9v5.1h-.6a.2.2 0 01-.2-.2v-.5a2.8 2.8 0 01-.8.6 2 2 0 01-1 .2 1.8 1.8 0 01-.7-.2 1.5 1.5 0 01-.5-.3 1.6 1.6 0 01-.3-.6 2.7 2.7 0 01-.2-.8v-3.3zm4.7 5.1v-5h.6a.2.2 0 01.2.1v.5a2.6 2.6 0 01.7-.5 1.5 1.5 0 01.8-.2 1.2 1.2 0 01.8.2 1.6 1.6 0 01.5.8 1.6 1.6 0 01.3-.5 1.6 1.6 0 01.4-.3 1.6 1.6 0 01.4-.2 2 2 0 01.5 0 1.9 1.9 0 01.7 0 1.4 1.4 0 01.5.5 1.7 1.7 0 01.4.6 2.7 2.7 0 01.1.8v3.2h-.9v-3.2a1.4 1.4 0 00-.3-1 1 1 0 00-.7-.2 1.1 1.1 0 00-.4 0 1 1 0 00-.4.3 1 1 0 00-.2.3 1.5 1.5 0 00-.1.6v3.2h-.9v-3.2a1.4 1.4 0 00-.2-1 .9.9 0 00-.8-.2 1.1 1.1 0 00-.6.1 2 2 0 00-.5.5v3.8zm10.2-5.1a2.3 2.3 0 01.9.1 1.9 1.9 0 01.6.4 2 2 0 01.5.8 2.7 2.7 0 01.1 1 .6.6 0 010 .2.2.2 0 01-.2 0h-3.3a2.8 2.8 0 000 .9 1.7 1.7 0 00.4.6 1.3 1.3 0 00.5.4 1.7 1.7 0 00.7 0 2 2 0 00.5 0 2.7 2.7 0 00.5-.2 3.2 3.2 0 00.3-.1.4.4 0 01.2-.1.2.2 0 01.1 0l.3.4a1.7 1.7 0 01-.4.3 2.5 2.5 0 01-.5.3 3.1 3.1 0 01-.6.1 3.3 3.3 0 01-.5 0 2.6 2.6 0 01-1-.1 2.1 2.1 0 01-.7-.5 2.4 2.4 0 01-.5-.9 3.4 3.4 0 01-.2-1.1 3 3 0 01.1-1 2.3 2.3 0 01.5-.8 2.2 2.2 0 01.8-.6 2.4 2.4 0 011-.1zm0 .6a1.4 1.4 0 00-1 .4 1.8 1.8 0 00-.4 1h2.7a1.8 1.8 0 000-.6 1.3 1.3 0 00-.3-.4 1.1 1.1 0 00-.4-.3 1.4 1.4 0 00-.5 0zm3.3 4.5v-5h.5a.2.2 0 01.2.1l.1.6a2.8 2.8 0 01.8-.6 2 2 0 01.9-.2 1.8 1.8 0 01.7 0 1.4 1.4 0 01.6.5 1.7 1.7 0 01.3.6 2.6 2.6 0 010 .8v3.2h-.8v-3.2a1.4 1.4 0 00-.3-1 1 1 0 00-.8-.2 1.5 1.5 0 00-.7.2 2.4 2.4 0 00-.6.5v3.7zm7 0a1.2 1.2 0 01-.8-.3 1.3 1.3 0 01-.4-1v-3h-.6a.2.2 0 01-.1 0 .2.2 0 010-.2v-.4h.8l.2-1.6a.2.2 0 010-.2.2.2 0 01.2 0h.4v1.7h1.5v.7h-1.5v3a.6.6 0 00.2.5.5.5 0 00.4.1.7.7 0 00.2 0 1 1 0 00.2 0l.1-.2a.2.2 0 01.1 0 .2.2 0 01.1 0l.3.5a1.7 1.7 0 01-.6.4 1.9 1.9 0 01-.6 0zm4.3-5.1a2.6 2.6 0 011 .1 2.1 2.1 0 01.8.6 2.3 2.3 0 01.5.8 3.3 3.3 0 01.1 1 3.3 3.3 0 01-.1 1.1 2.3 2.3 0 01-.5.9 2 2 0 01-.8.5 2.6 2.6 0 01-1 .2 2.6 2.6 0 01-1-.2 2.1 2.1 0 01-.7-.5 2.3 2.3 0 01-.5-.9 3.2 3.2 0 01-.2-1 3.2 3.2 0 01.2-1.1 2.3 2.3 0 01.5-.8 2.1 2.1 0 01.7-.6 2.6 2.6 0 011-.1zm0 4.5a1.3 1.3 0 001.1-.5 2.3 2.3 0 00.4-1.4 2.3 2.3 0 00-.4-1.4 1.3 1.3 0 00-1-.5 1.6 1.6 0 00-.7 0 1.2 1.2 0 00-.5.5 1.7 1.7 0 00-.3.6 3.2 3.2 0 000 .8 3.2 3.2 0 000 .8 1.6 1.6 0 00.3.6 1.2 1.2 0 00.5.3 1.6 1.6 0 00.6.2z" data-name="Caminho 10267"/></g><path fill="#14112d" d="M1158.1 1566h-.9a.4.4 0 01-.2 0 .5.5 0 01-.2-.3l-.8-2h-3.8l-.8 2a.5.5 0 01-.2.2.4.4 0 01-.2.1h-1l3.5-8.6h1.2zm-5.6-3.2h3.2l-1.4-3.5a6.5 6.5 0 01-.2-.8l-.1.5-.2.3zm7.5-2.9v3.9a1.6 1.6 0 00.3 1 1.2 1.2 0 001 .4 1.8 1.8 0 00.8-.2 2.7 2.7 0 00.8-.6v-4.5h1v6.1h-.6a.3.3 0 01-.3-.2v-.7a3.3 3.3 0 01-1 .7 2.3 2.3 0 01-1 .3 2.2 2.2 0 01-1-.2 1.7 1.7 0 01-.6-.4 2 2 0 01-.4-.8 3.2 3.2 0 01-.1-.9v-3.9zm7.6 6.2a1.5 1.5 0 01-1.2-.4 1.6 1.6 0 01-.3-1.2v-3.7h-.8a.2.2 0 01-.1 0 .2.2 0 01-.1-.2v-.4l1-.2.2-1.8a.2.2 0 01.1-.2.2.2 0 01.2 0h.5v2h1.8v.8h-1.8v3.7a.8.8 0 00.2.5.7.7 0 00.5.2.8.8 0 00.3 0 1.2 1.2 0 00.2-.1l.2-.1a.2.2 0 01.2 0l.3.5a2 2 0 01-.6.4 2.3 2.3 0 01-.9.2zm5-6.3a2.7 2.7 0 011 .2 2.3 2.3 0 01.8.5 2.4 2.4 0 01.5.9 3.3 3.3 0 01.2 1.1.7.7 0 010 .4.2.2 0 01-.2 0h-4a3.4 3.4 0 000 1 2 2 0 00.5.8 1.6 1.6 0 00.6.4 2 2 0 00.7.1 2.3 2.3 0 00.7 0 3.3 3.3 0 00.5-.2 3.8 3.8 0 00.4-.2.5.5 0 01.2-.1.2.2 0 01.2 0l.3.4a2 2 0 01-.4.5 3 3 0 01-.6.3 3.8 3.8 0 01-.7.1 4 4 0 01-.7 0 3 3 0 01-1.1-.1 2.5 2.5 0 01-1-.7 2.9 2.9 0 01-.5-1 4.1 4.1 0 01-.2-1.4 3.5 3.5 0 01.1-1.1 2.8 2.8 0 01.6-1 2.6 2.6 0 01.9-.6 3 3 0 011.2-.3zm0 .8a1.6 1.6 0 00-1.2.5 2.1 2.1 0 00-.6 1.2h3.3a2.2 2.2 0 000-.7 1.5 1.5 0 00-.3-.5 1.3 1.3 0 00-.5-.4 1.6 1.6 0 00-.7 0zm3.9 5.4v-6h.6a.3.3 0 01.3.1v.7a3.4 3.4 0 011-.7 2.3 2.3 0 011.1-.3 2.2 2.2 0 01.9.2 1.7 1.7 0 01.6.5 2 2 0 01.4.7 3.2 3.2 0 01.1 1v3.8h-1v-3.9a1.6 1.6 0 00-.4-1 1.2 1.2 0 00-1-.4 1.8 1.8 0 00-.8.2 3 3 0 00-.8.6v4.5zm8.5.1a1.5 1.5 0 01-1.1-.4 1.6 1.6 0 01-.4-1.2v-3.7h-.7a.2.2 0 01-.2 0 .2.2 0 010-.2v-.4l1-.2.2-1.8a.2.2 0 010-.2.2.2 0 01.2 0h.6v2h1.7v.8h-1.7v3.7a.8.8 0 00.1.5.7.7 0 00.5.2.8.8 0 00.3 0 1.2 1.2 0 00.2-.1l.2-.1a.2.2 0 01.2 0l.4.5a2 2 0 01-.7.4 2.3 2.3 0 01-.8.2zm3.8-6.2v6.1h-1v-6zm.2-1.9a.7.7 0 010 .3.8.8 0 01-.2.2.8.8 0 01-.2.2.7.7 0 01-.3 0 .7.7 0 01-.3 0 .8.8 0 01-.4-.4.7.7 0 010-.3.8.8 0 010-.3.8.8 0 01.2-.2.8.8 0 01.2-.2.7.7 0 01.3 0 .7.7 0 01.3 0 .8.8 0 01.2.2.8.8 0 01.2.2.7.7 0 010 .3zm6.6 2v8h-1v-2.9a3.2 3.2 0 01-1 .7 2.3 2.3 0 01-1 .3 2.2 2.2 0 01-1-.2 2 2 0 01-.7-.6 2.8 2.8 0 01-.5-1 5 5 0 01-.2-1.3 4.2 4.2 0 01.2-1.3 3 3 0 01.5-1 2.4 2.4 0 012-.9 2.2 2.2 0 011 .2 2.4 2.4 0 01.7.6v-.5a.3.3 0 01.4-.2zm-2.7 5.2a1.7 1.7 0 001-.2 2.6 2.6 0 00.6-.7v-3a1.7 1.7 0 00-.6-.5 1.8 1.8 0 00-.8-.2 1.5 1.5 0 00-1.3.7 2.8 2.8 0 00-.4 1.7 4.4 4.4 0 000 1 2 2 0 00.4.7 1.2 1.2 0 00.4.4 1.6 1.6 0 00.7.1zm5.4-5.3v3.9a1.6 1.6 0 00.3 1 1.2 1.2 0 001 .4 1.8 1.8 0 00.9-.2 2.7 2.7 0 00.7-.6v-4.5h1.1v6.1h-.6a.3.3 0 01-.3-.2v-.7a3.3 3.3 0 01-1 .7 2.3 2.3 0 01-1.1.3 2.2 2.2 0 01-.9-.2 1.7 1.7 0 01-.6-.4 2 2 0 01-.4-.8 3.2 3.2 0 01-.1-.9v-3.9zm8.2 0a2.7 2.7 0 011 .1 2.3 2.3 0 01.8.5 2.4 2.4 0 01.5.9 3.3 3.3 0 01.2 1.1.7.7 0 010 .4.2.2 0 01-.3 0h-4a3.4 3.4 0 00.2 1 2 2 0 00.4.8 1.6 1.6 0 00.6.4 2 2 0 00.7.1 2.3 2.3 0 00.7 0 3.3 3.3 0 00.5-.3 3.8 3.8 0 00.4-.2.5.5 0 01.2 0 .2.2 0 01.2 0l.3.4a2 2 0 01-.5.5 3 3 0 01-.5.3 3.8 3.8 0 01-.7.1 4 4 0 01-.7 0 3 3 0 01-1.1-.1 2.5 2.5 0 01-1-.7 2.9 2.9 0 01-.5-1 4.1 4.1 0 01-.3-1.4 3.5 3.5 0 01.2-1.2 2.8 2.8 0 01.6-1 2.6 2.6 0 01.9-.5 3 3 0 011.2-.3zm0 .7a1.6 1.6 0 00-1.2.5 2.1 2.1 0 00-.6 1.2h3.3a2.2 2.2 0 000-.7 1.5 1.5 0 00-.4-.5 1.3 1.3 0 00-.4-.4 1.6 1.6 0 00-.7 0zm7.5 4.4h3.7v1h-4.9v-8.6h1.2zm9.8-7.6v1h-2.7v7.6h-1.2v-7.6h-2.8v-1zm8.7 4.3a4.8 4.8 0 01-.3 1.8 3.9 3.9 0 01-.9 1.3 3.9 3.9 0 01-1.3.9 4.7 4.7 0 01-1.7.3h-3.2v-8.6h3.2a4.7 4.7 0 011.7.3 3.8 3.8 0 011.3.9 4 4 0 01.9 1.3 4.8 4.8 0 01.3 1.8zm-1.2 0a4.3 4.3 0 00-.2-1.4 3 3 0 00-.6-1 2.6 2.6 0 00-1-.7 3.3 3.3 0 00-1.2-.3h-2v6.8h2a3.3 3.3 0 001.2-.3 2.6 2.6 0 001-.6 3 3 0 00.6-1 4.3 4.3 0 00.2-1.5zm9.6 4.3h-.9a.4.4 0 01-.2 0 .5.5 0 01-.2-.3l-.8-2h-3.8l-.8 2a.5.5 0 01-.2.2.4.4 0 01-.2.1h-1l3.5-8.6h1.2zm-5.6-3.2h3.2l-1.4-3.5a6.5 6.5 0 01-.2-.8l-.1.5-.2.3zm11.3-3a2.7 2.7 0 011 .2 2.3 2.3 0 01.8.5 2.4 2.4 0 01.5.9 3.3 3.3 0 01.2 1.1.7.7 0 010 .4.2.2 0 01-.3 0h-4a3.4 3.4 0 00.1 1 2 2 0 00.4.8 1.6 1.6 0 00.6.4 2 2 0 00.8.1 2.3 2.3 0 00.7 0 3.3 3.3 0 00.5-.3 3.8 3.8 0 00.4-.2.5.5 0 01.2 0 .2.2 0 01.2 0l.3.4a2 2 0 01-.5.5 3 3 0 01-.6.3 3.8 3.8 0 01-.6.1 4 4 0 01-.7 0 3 3 0 01-1.1-.1 2.5 2.5 0 01-1-.7 2.9 2.9 0 01-.6-1 4.1 4.1 0 01-.2-1.4 3.5 3.5 0 01.2-1.2 2.8 2.8 0 01.6-1 2.6 2.6 0 01.9-.5 3 3 0 011.2-.3zm0 .8a1.6 1.6 0 00-1.2.5 2.1 2.1 0 00-.6 1.2h3.3a2.2 2.2 0 000-.7 1.5 1.5 0 00-.4-.5 1.3 1.3 0 00-.5-.4 1.6 1.6 0 00-.6 0zm3.8 5.4v-6h.7a.3.3 0 01.3.1v.7a3.4 3.4 0 011-.7 2.3 2.3 0 011-.3 2.2 2.2 0 011 .2 1.7 1.7 0 01.6.5 2 2 0 01.4.7 3.2 3.2 0 01.1 1v3.8h-1v-3.9a1.6 1.6 0 00-.4-1 1.2 1.2 0 00-1-.4 1.8 1.8 0 00-.8.2 3 3 0 00-.8.6v4.5zm5.8-6h.8a.3.3 0 01.2 0 .4.4 0 01.2.1l1.5 4a3 3 0 01.1.4l.1.4.1-.4a3.6 3.6 0 01.2-.4l1.5-4a.4.4 0 01.1-.1.3.3 0 01.2 0h.9l-2.5 6h-1zm8 0v6h-1v-6zm.3-2a.7.7 0 010 .3.8.8 0 01-.2.2.8.8 0 01-.3.2.7.7 0 01-.3 0 .7.7 0 01-.3 0 .8.8 0 01-.4-.4.7.7 0 010-.3.8.8 0 010-.3.8.8 0 01.2-.2.8.8 0 01.2-.2.7.7 0 01.3 0 .7.7 0 01.3 0 .8.8 0 01.3.2.8.8 0 01.1.2.7.7 0 010 .3zm4 1.8a3.1 3.1 0 011.3.2 2.5 2.5 0 01.9.7 2.8 2.8 0 01.6 1 4 4 0 01.2 1.3 4 4 0 01-.2 1.3 2.8 2.8 0 01-.6 1 2.5 2.5 0 01-1 .6 3.4 3.4 0 01-2.3 0 2.5 2.5 0 01-1-.7 2.8 2.8 0 01-.5-1 3.9 3.9 0 01-.2-1.2 3.9 3.9 0 01.2-1.3 2.8 2.8 0 01.6-1 2.6 2.6 0 01.9-.7 3.1 3.1 0 011.2-.2zm0 5.5a1.6 1.6 0 001.4-.6 2.8 2.8 0 00.5-1.7 2.8 2.8 0 00-.5-1.7 1.6 1.6 0 00-1.3-.6 1.9 1.9 0 00-.8.1 1.5 1.5 0 00-.6.5 2 2 0 00-.3.7 3.9 3.9 0 00-.1 1 3.8 3.8 0 00.1 1 2 2 0 00.3.7 1.5 1.5 0 00.6.4 1.9 1.9 0 00.8.2zm5.2-5.4v3.9a1.6 1.6 0 00.3 1 1.2 1.2 0 001 .4 1.8 1.8 0 00.9-.2 2.7 2.7 0 00.7-.6v-4.5h1.1v6.1h-.6a.3.3 0 01-.3-.2v-.7a3.3 3.3 0 01-1 .7 2.3 2.3 0 01-1.1.3 2.2 2.2 0 01-.9-.2 1.7 1.7 0 01-.6-.4 2 2 0 01-.4-.8 3.2 3.2 0 01-.1-.9v-3.9zm9 0v3.9a1.6 1.6 0 00.3 1 1.2 1.2 0 001 .4 1.8 1.8 0 00.9-.2 2.7 2.7 0 00.7-.6v-4.5h1.1v6.1h-.6a.3.3 0 01-.3-.2l-.1-.7a3.3 3.3 0 01-.9.7 2.3 2.3 0 01-1.1.3 2.2 2.2 0 01-.9-.2 1.7 1.7 0 01-.6-.4 2 2 0 01-.4-.8 3.2 3.2 0 01-.2-.9v-3.9zm5.8 6.1v-6h.6a.3.3 0 01.3.1v.7a3.1 3.1 0 01.8-.7 1.8 1.8 0 011-.3 1.4 1.4 0 011 .4 2 2 0 01.5.9 1.9 1.9 0 01.4-.6 2 2 0 01.4-.4 2 2 0 01.6-.2 2.5 2.5 0 01.6 0 2.2 2.2 0 01.8 0 1.7 1.7 0 01.7.5 2 2 0 01.4.7 3.2 3.2 0 01.1 1v3.9h-1v-3.9a1.6 1.6 0 00-.4-1 1.1 1.1 0 00-.9-.4 1.4 1.4 0 00-.5 0 1.2 1.2 0 00-.4.3 1.3 1.3 0 00-.3.5 1.8 1.8 0 000 .6v3.9h-1.1v-3.9a1.7 1.7 0 00-.3-1 1 1 0 00-.9-.4 1.4 1.4 0 00-.7.2 2.4 2.4 0 00-.7.6v4.5zm16.4 0a.3.3 0 01-.3-.2v-.8a3.2 3.2 0 01-1 .8 2.3 2.3 0 01-1.1.3 2.2 2.2 0 01-1-.2 2 2 0 01-.7-.6 2.8 2.8 0 01-.5-1 5 5 0 01-.1-1.3 4.2 4.2 0 01.2-1.3 3 3 0 01.5-1 2.4 2.4 0 012-.9 2.2 2.2 0 01.9.2 2.3 2.3 0 01.7.5v-3.3h1v8.8zm-2-.8a1.7 1.7 0 00.9-.2 2.6 2.6 0 00.7-.7v-3a1.7 1.7 0 00-.7-.5 1.9 1.9 0 00-.7-.2 1.5 1.5 0 00-1.3.7 2.8 2.8 0 00-.5 1.7 4.4 4.4 0 00.1 1 2 2 0 00.3.7 1.2 1.2 0 00.5.4 1.6 1.6 0 00.6.1zm6.9-5.4a3.1 3.1 0 011.2.2 2.5 2.5 0 011 .7 2.8 2.8 0 01.5 1 4 4 0 01.2 1.3 4 4 0 01-.2 1.3 2.8 2.8 0 01-.6 1 2.5 2.5 0 01-.9.6 3.4 3.4 0 01-2.4 0 2.5 2.5 0 01-1-.7 2.8 2.8 0 01-.5-1 3.9 3.9 0 01-.2-1.2 3.9 3.9 0 01.2-1.3 2.8 2.8 0 01.6-1 2.6 2.6 0 01.9-.7 3.1 3.1 0 011.2-.2zm0 5.5a1.6 1.6 0 001.3-.6 2.8 2.8 0 00.5-1.7 2.8 2.8 0 00-.5-1.7 1.6 1.6 0 00-1.3-.6 1.9 1.9 0 00-.8.1 1.5 1.5 0 00-.5.5 2 2 0 00-.4.7 3.9 3.9 0 00-.1 1 3.8 3.8 0 00.1 1 2 2 0 00.4.7 1.5 1.5 0 00.5.4 1.9 1.9 0 00.8.2zm8.4-4.3a.5.5 0 01-.1.1.2.2 0 01-.2 0 .3.3 0 01-.2 0 2.8 2.8 0 00-.2-.2 2.2 2.2 0 00-.4-.2 2 2 0 00-1.4.1 1.5 1.5 0 00-.6.5 2 2 0 00-.3.7 3.6 3.6 0 00-.1 1 3.5 3.5 0 00.1 1 2.1 2.1 0 00.4.7 1.5 1.5 0 00.5.4 1.7 1.7 0 00.8.2 1.9 1.9 0 00.6-.1 2 2 0 00.4-.2 3 3 0 00.3-.3.3.3 0 01.2 0 .2.2 0 01.2 0l.3.4a2.3 2.3 0 01-1 .8 3.5 3.5 0 01-1.2.2 2.7 2.7 0 01-1.1-.2 2.4 2.4 0 01-.8-.6 2.9 2.9 0 01-.6-1 4 4 0 01-.2-1.3 4 4 0 01.2-1.3 2.8 2.8 0 01.5-1 2.5 2.5 0 011-.6 3 3 0 011.1-.3 2.9 2.9 0 011.2.2 2.7 2.7 0 01.8.6zm2.3-1v3.8a1.6 1.6 0 00.4 1 1.2 1.2 0 001 .4 1.8 1.8 0 00.8-.2 2.7 2.7 0 00.8-.6v-4.5h1v6.1h-.6a.3.3 0 01-.3-.2v-.7a3.3 3.3 0 01-1 .7 2.3 2.3 0 01-1 .3 2.2 2.2 0 01-1-.2 1.7 1.7 0 01-.6-.4 2 2 0 01-.4-.8 3.2 3.2 0 01-.1-.9v-3.9zm5.8 6v-6h.6a.3.3 0 01.3.1v.7a3.1 3.1 0 01.8-.7 1.8 1.8 0 011-.3 1.4 1.4 0 011 .4 2 2 0 01.6.9 1.9 1.9 0 01.3-.6 2 2 0 01.5-.4 2 2 0 01.5-.2 2.5 2.5 0 01.6 0 2.2 2.2 0 01.9 0 1.7 1.7 0 01.6.5 2 2 0 01.4.7 3.2 3.2 0 01.1 1v3.9h-1v-3.9a1.6 1.6 0 00-.3-1 1.1 1.1 0 00-1-.4 1.4 1.4 0 00-.5 0 1.2 1.2 0 00-.4.3 1.3 1.3 0 00-.3.5 1.8 1.8 0 000 .6v3.9h-1.1v-3.9a1.7 1.7 0 00-.3-1 1 1 0 00-.9-.4 1.4 1.4 0 00-.7.2 2.4 2.4 0 00-.6.6v4.5zm12.2-6.2a2.7 2.7 0 011 .2 2.3 2.3 0 01.9.5 2.4 2.4 0 01.5.9 3.3 3.3 0 01.2 1.1.7.7 0 010 .4.2.2 0 01-.3 0h-4a3.4 3.4 0 00.1 1 2 2 0 00.4.8 1.6 1.6 0 00.6.4 2 2 0 00.8.1 2.3 2.3 0 00.7 0 3.3 3.3 0 00.5-.3 3.8 3.8 0 00.4-.2.5.5 0 01.2 0 .2.2 0 01.2 0l.3.4a2 2 0 01-.5.5 3 3 0 01-.6.3 3.8 3.8 0 01-.6.1 4 4 0 01-.7 0 3 3 0 01-1.1-.1 2.5 2.5 0 01-1-.7 2.9 2.9 0 01-.6-1 4.1 4.1 0 01-.2-1.4 3.5 3.5 0 01.2-1.2 2.8 2.8 0 01.6-1 2.6 2.6 0 01.9-.5 3 3 0 011.1-.3zm0 .8a1.6 1.6 0 00-1.1.5 2.1 2.1 0 00-.6 1.2h3.3a2.2 2.2 0 000-.7 1.5 1.5 0 00-.4-.5 1.3 1.3 0 00-.5-.4 1.6 1.6 0 00-.6 0zm4 5.4v-6h.6a.3.3 0 01.3.1v.7a3.4 3.4 0 011-.7 2.3 2.3 0 011-.3 2.2 2.2 0 011 .2 1.7 1.7 0 01.6.5 2 2 0 01.4.7 3.2 3.2 0 010 1v3.8h-1v-3.9a1.6 1.6 0 00-.3-1 1.2 1.2 0 00-1-.4 1.8 1.8 0 00-.8.2 3 3 0 00-.8.6v4.5zm8.4.1a1.5 1.5 0 01-1-.4 1.6 1.6 0 01-.4-1.2v-3.7h-.8a.2.2 0 01-.1 0 .2.2 0 01-.1-.2v-.4l1-.2.2-1.8a.2.2 0 01.1-.2.2.2 0 01.2 0h.5v2h1.8v.8h-1.8v3.7a.8.8 0 00.2.5.7.7 0 00.5.2.8.8 0 00.3 0 1.2 1.2 0 00.2-.1l.1-.1a.2.2 0 01.2 0 .2.2 0 01.1 0l.3.5a2 2 0 01-.6.4 2.3 2.3 0 01-.9.2zm5.1-6.3a3.1 3.1 0 011.2.3 2.5 2.5 0 011 .6 2.8 2.8 0 01.5 1 4 4 0 01.2 1.3 4 4 0 01-.2 1.3 2.8 2.8 0 01-.5 1 2.5 2.5 0 01-1 .6 3.4 3.4 0 01-2.4 0 2.5 2.5 0 01-.9-.7 2.8 2.8 0 01-.6-1 3.9 3.9 0 01-.2-1.2 3.9 3.9 0 01.2-1.3 2.8 2.8 0 01.6-1 2.6 2.6 0 011-.6 3.1 3.1 0 011.1-.3zm0 5.5a1.6 1.6 0 001.4-.6 2.8 2.8 0 00.4-1.7 2.8 2.8 0 00-.4-1.7 1.6 1.6 0 00-1.4-.6 1.9 1.9 0 00-.8.1 1.5 1.5 0 00-.5.5 2 2 0 00-.3.7 3.9 3.9 0 00-.2 1 3.8 3.8 0 00.2 1 2 2 0 00.3.7 1.5 1.5 0 00.5.4 1.9 1.9 0 00.8.2zm6.6 2.8v-8.2h.6a.3.3 0 01.3.2v.8a3.2 3.2 0 011-.8 2.3 2.3 0 011.1-.3 2.2 2.2 0 011 .2 2 2 0 01.7.6 2.8 2.8 0 01.5 1 5 5 0 01.1 1.3 4.2 4.2 0 01-.2 1.3 3 3 0 01-.5 1 2.4 2.4 0 01-.8.6 2.4 2.4 0 01-1.1.3 2.3 2.3 0 01-1-.2 2.2 2.2 0 01-.7-.5v2.7zm2.7-7.4a1.7 1.7 0 00-1 .2 2.6 2.6 0 00-.7.7v3a1.7 1.7 0 00.7.5 1.8 1.8 0 00.8.2 1.5 1.5 0 001.3-.6 2.8 2.8 0 00.4-1.8 4.3 4.3 0 000-1 2 2 0 00-.4-.7 1.2 1.2 0 00-.5-.4 1.6 1.6 0 00-.6-.1zm8.4 5.3h-.5a.6.6 0 01-.3 0 .3.3 0 01-.1-.2l-.1-.6-.5.4a2.7 2.7 0 01-.5.3 2.5 2.5 0 01-.5.1 3 3 0 01-.6.1 2.2 2.2 0 01-.7-.1 1.5 1.5 0 01-.5-.3 1.4 1.4 0 01-.4-.5 1.8 1.8 0 01-.1-.7 1.3 1.3 0 01.2-.7 1.7 1.7 0 01.6-.6 4.2 4.2 0 011.2-.4 8.8 8.8 0 011.7-.2v-.5a1.6 1.6 0 00-.3-1 1.1 1.1 0 00-.9-.4 1.9 1.9 0 00-.7 0 2.5 2.5 0 00-.4.3l-.4.2a.5.5 0 01-.2.1.3.3 0 01-.2 0 .4.4 0 01-.2-.2l-.1-.3a3.5 3.5 0 011-.7 3.4 3.4 0 011.3-.3 2.3 2.3 0 011 .2 1.9 1.9 0 01.6.5 2 2 0 01.4.7 3 3 0 01.2 1zm-2.8-.7a2.2 2.2 0 00.5 0 2 2 0 00.4-.2 2.3 2.3 0 00.4-.2 3.4 3.4 0 00.4-.4v-1.2a8.8 8.8 0 00-1.2 0 3.5 3.5 0 00-.9.3 1.2 1.2 0 00-.5.4.8.8 0 00-.1.4 1 1 0 000 .4.8.8 0 00.3.3.8.8 0 00.3.2 1.4 1.4 0 00.4 0zm4.4.7v-6h.6a.3.3 0 01.2 0 .4.4 0 01.1.2v1a2.8 2.8 0 01.9-1 1.8 1.8 0 011.5-.3 1.6 1.6 0 01.4.1l-.2.8a.2.2 0 01-.2.2 1 1 0 01-.2 0 1.6 1.6 0 00-.5-.1 1.4 1.4 0 00-1 .3 2.4 2.4 0 00-.6 1v3.8zm9 0h-.4a.6.6 0 01-.3 0 .3.3 0 01-.1-.2l-.1-.6-.5.4a2.7 2.7 0 01-.5.3 2.5 2.5 0 01-.5.1 3 3 0 01-.6.1 2.2 2.2 0 01-.7-.1 1.5 1.5 0 01-.5-.3 1.4 1.4 0 01-.4-.5 1.8 1.8 0 01-.1-.7 1.3 1.3 0 01.2-.7 1.7 1.7 0 01.6-.6 4.2 4.2 0 011.2-.4 8.8 8.8 0 011.7-.2v-.5a1.6 1.6 0 00-.3-1 1.1 1.1 0 00-.9-.4 1.9 1.9 0 00-.7 0 2.5 2.5 0 00-.4.3l-.4.2a.5.5 0 01-.2.1.3.3 0 01-.2 0 .4.4 0 01-.2-.2l-.1-.3a3.5 3.5 0 011-.7 3.4 3.4 0 011.3-.3 2.3 2.3 0 011 .2 1.9 1.9 0 01.6.5 2 2 0 01.4.7 3 3 0 01.2 1zm-2.7-.7a2.2 2.2 0 00.5 0 2 2 0 00.4-.2 2.3 2.3 0 00.4-.2 3.4 3.4 0 00.4-.4v-1.2a8.8 8.8 0 00-1.3 0 3.5 3.5 0 00-.8.3 1.2 1.2 0 00-.5.4.8.8 0 00-.1.4 1 1 0 000 .4.8.8 0 00.3.3.8.8 0 00.3.2 1.4 1.4 0 00.4 0zM1150 1575h.9a.3.3 0 01.2 0 .4.4 0 01.1.2l1.6 4a3 3 0 010 .4l.2.4v-.4a3.6 3.6 0 01.2-.4l1.6-4a.4.4 0 010-.1.3.3 0 01.3 0h.8l-2.4 6h-1zm9.2 0a3.1 3.1 0 011.2.1 2.5 2.5 0 011 .7 2.8 2.8 0 01.5 1 4.3 4.3 0 010 2.6 2.8 2.8 0 01-.6 1 2.5 2.5 0 01-.9.6 3.4 3.4 0 01-2.4 0 2.5 2.5 0 01-.9-.7 2.8 2.8 0 01-.6-1 4.2 4.2 0 010-2.5 2.8 2.8 0 01.6-1 2.6 2.6 0 011-.7 3.1 3.1 0 011.1-.2zm0 5.3a1.6 1.6 0 001.4-.6 2.8 2.8 0 00.4-1.6 2.8 2.8 0 00-.4-1.7 1.6 1.6 0 00-1.4-.6 1.9 1.9 0 00-.8.1 1.5 1.5 0 00-.5.5 2 2 0 00-.4.7 4.3 4.3 0 000 2 2 2 0 00.4.6 1.5 1.5 0 00.5.5 1.9 1.9 0 00.8.2zm8.4-4.2a.5.5 0 01-.1.1.2.2 0 01-.2 0 .3.3 0 01-.2 0 2.8 2.8 0 00-.2-.2 2.2 2.2 0 00-.4-.2 2 2 0 00-1.4.1 1.5 1.5 0 00-.5.5 2 2 0 00-.4.7 3.6 3.6 0 00-.1 1 3.5 3.5 0 00.1 1 2.1 2.1 0 00.4.7 1.5 1.5 0 00.5.4 1.7 1.7 0 00.8.2 1.9 1.9 0 00.6-.1 2 2 0 00.4-.2 3 3 0 00.3-.3.3.3 0 01.2 0 .2.2 0 01.2 0l.3.4a2.3 2.3 0 01-1 .8 3.5 3.5 0 01-1.2.2 2.7 2.7 0 01-1-.2 2.4 2.4 0 01-1-.6 2.9 2.9 0 01-.5-1 4 4 0 01-.2-1.3 4 4 0 01.2-1.3 2.8 2.8 0 01.5-1 2.5 2.5 0 011-.6 3 3 0 011.2-.3 2.9 2.9 0 011 .2 2.7 2.7 0 011 .6zm3.8-1.2a2.7 2.7 0 011 .2 2.3 2.3 0 01.9.5 2.4 2.4 0 01.5.9 3.3 3.3 0 01.2 1.1.7.7 0 010 .4.2.2 0 01-.3 0h-4a3.4 3.4 0 00.1 1 2 2 0 00.4.8 1.6 1.6 0 00.6.4 2 2 0 00.8.1 2.3 2.3 0 00.7 0 3.3 3.3 0 00.5-.3 3.8 3.8 0 00.3-.2.5.5 0 01.3 0 .2.2 0 01.2 0l.3.4a2 2 0 01-.5.5 3 3 0 01-.6.3 3.8 3.8 0 01-.6.1 4 4 0 01-.7 0 3 3 0 01-1.2-.1 2.5 2.5 0 01-.9-.7 2.9 2.9 0 01-.6-1 4.1 4.1 0 01-.2-1.4 3.5 3.5 0 01.2-1.1 2.8 2.8 0 01.6-1 2.6 2.6 0 01.9-.6 3 3 0 011.1-.3zm0 .8a1.6 1.6 0 00-1.1.5 2.1 2.1 0 00-.6 1.2h3.3a2.2 2.2 0 000-.7 1.5 1.5 0 00-.4-.5 1.3 1.3 0 00-.5-.4 1.6 1.6 0 00-.6 0zm1.9-1.6h-.7a.4.4 0 01-.3-.1l-.7-.8h-.2l-.8.8a.4.4 0 01-.1 0 .4.4 0 01-.1 0h-.8l1.4-1.5h1zm8.8 7h-.5a.6.6 0 01-.2 0 .3.3 0 01-.1-.2l-.2-.6-.4.4a2.7 2.7 0 01-.5.3 2.5 2.5 0 01-.5.1 3 3 0 01-.7.1 2.2 2.2 0 01-.6-.1 1.5 1.5 0 01-.6-.3 1.4 1.4 0 01-.3-.5 1.8 1.8 0 01-.2-.7 1.3 1.3 0 01.2-.7 1.7 1.7 0 01.7-.6 4.2 4.2 0 011.1-.4 8.8 8.8 0 011.8-.2v-.5a1.6 1.6 0 00-.3-1 1.1 1.1 0 00-1-.4 1.9 1.9 0 00-.6 0 2.5 2.5 0 00-.5.3l-.3.2a.5.5 0 01-.3.1.3.3 0 01-.2 0 .4.4 0 010-.2l-.3-.3a3.5 3.5 0 011.1-.7 3.4 3.4 0 011.3-.3 2.3 2.3 0 01.9.2 1.9 1.9 0 01.7.5 2 2 0 01.4.7 3 3 0 01.1 1zm-2.8-.7a2.2 2.2 0 00.6 0 2 2 0 00.4-.2 2.3 2.3 0 00.4-.2 3.4 3.4 0 00.4-.4v-1.2a8.8 8.8 0 00-1.3 0 3.5 3.5 0 00-.8.3 1.2 1.2 0 00-.5.4.8.8 0 00-.2.4 1 1 0 00.1.4.8.8 0 00.2.3.8.8 0 00.3.2 1.4 1.4 0 00.4 0zm8-4.4a.2.2 0 01-.3.2.4.4 0 01-.2-.1l-.3-.2a2.6 2.6 0 00-.4-.1 1.9 1.9 0 00-.5 0 1.6 1.6 0 00-.5 0 1.2 1.2 0 00-.4.2.8.8 0 00-.2.3.7.7 0 00-.1.3.6.6 0 00.1.4 1.2 1.2 0 00.4.3 3.1 3.1 0 00.5.2l.6.2.6.2a2.1 2.1 0 01.5.3 1.4 1.4 0 01.3.4 1.4 1.4 0 01.1.6 2 2 0 01-.1.8 1.7 1.7 0 01-.4.6 2.1 2.1 0 01-.8.4 3 3 0 01-1 .2 3 3 0 01-1.1-.2 3 3 0 01-.9-.5l.3-.5a.3.3 0 01.3-.1.4.4 0 01.2 0l.3.3a2.2 2.2 0 00.4.1 1.9 1.9 0 00.6.1 1.7 1.7 0 00.5 0 1.1 1.1 0 00.4-.3.9.9 0 00.3-.3 1 1 0 000-.4.6.6 0 000-.4 1.1 1.1 0 00-.4-.3 3 3 0 00-.6-.2l-.5-.2-.6-.2a2 2 0 01-.5-.3 1.4 1.4 0 01-.4-.4 1.5 1.5 0 01-.1-.7 1.6 1.6 0 01.1-.7 1.6 1.6 0 01.4-.5 2 2 0 01.7-.4 2.7 2.7 0 011-.2 2.9 2.9 0 011 .2 2.5 2.5 0 01.8.5zm5.1 0a.2.2 0 01-.2.2.4.4 0 01-.2-.1l-.3-.2a2.6 2.6 0 00-.4-.1 1.9 1.9 0 00-.5 0 1.6 1.6 0 00-.5 0 1.2 1.2 0 00-.4.2.8.8 0 00-.2.3.7.7 0 000 .3.6.6 0 000 .4 1.2 1.2 0 00.4.3 3.1 3.1 0 00.5.2l.6.2.6.2a2.1 2.1 0 01.5.3 1.4 1.4 0 01.3.4 1.4 1.4 0 01.2.6 2 2 0 01-.2.8 1.7 1.7 0 01-.4.6 2.1 2.1 0 01-.8.4 3 3 0 01-1 .2 3 3 0 01-1.1-.2 3 3 0 01-.9-.5l.3-.5a.3.3 0 01.3-.1.4.4 0 01.2 0l.3.3a2.2 2.2 0 00.4.1 1.9 1.9 0 00.6.1 1.7 1.7 0 00.6 0 1.1 1.1 0 00.3-.3.9.9 0 00.3-.3 1 1 0 000-.4.6.6 0 000-.4 1.1 1.1 0 00-.4-.3 3 3 0 00-.5-.2l-.6-.2-.6-.2a2 2 0 01-.5-.3 1.4 1.4 0 01-.4-.4 1.5 1.5 0 01-.1-.7 1.6 1.6 0 01.1-.7 1.6 1.6 0 01.5-.5 2 2 0 01.6-.4 2.7 2.7 0 011-.2 2.9 2.9 0 011 .2 2.5 2.5 0 01.9.5zm3-1v6.1h-1.1v-6zm.2-1.9a.7.7 0 010 .3.8.8 0 01-.3.2.8.8 0 01-.2.2.7.7 0 01-.3 0 .7.7 0 01-.3 0 .8.8 0 01-.4-.4.7.7 0 010-.3.8.8 0 010-.3.8.8 0 01.2-.2.8.8 0 01.2-.2.7.7 0 01.3 0 .7.7 0 01.3 0 .8.8 0 01.2.2.8.8 0 01.2.2.7.7 0 010 .3zm1.6 8v-6h.7a.3.3 0 01.2.1l.1.7a3.4 3.4 0 011-.7 2.3 2.3 0 011-.3 2.2 2.2 0 011 .2 1.7 1.7 0 01.6.5 2 2 0 01.3.7 3.2 3.2 0 01.2 1v3.8h-1v-3.9a1.6 1.6 0 00-.4-1 1.2 1.2 0 00-1-.4 1.8 1.8 0 00-.9.2 3 3 0 00-.7.6v4.5zm11.2 0h-.5a.6.6 0 01-.3 0 .3.3 0 01-.1-.2l-.1-.6-.5.4a2.7 2.7 0 01-.5.3 2.5 2.5 0 01-.5.1 3 3 0 01-.6.1 2.2 2.2 0 01-.7-.1 1.5 1.5 0 01-.5-.3 1.4 1.4 0 01-.4-.5 1.8 1.8 0 01-.1-.7 1.3 1.3 0 01.2-.7 1.7 1.7 0 01.6-.6 4.2 4.2 0 011.2-.4 8.8 8.8 0 011.7-.2v-.5a1.6 1.6 0 00-.3-1 1.1 1.1 0 00-.9-.4 1.9 1.9 0 00-.7 0 2.5 2.5 0 00-.4.3l-.4.2a.5.5 0 01-.2.1.3.3 0 01-.2 0 .4.4 0 01-.2-.2l-.1-.3a3.5 3.5 0 011-.7 3.4 3.4 0 011.3-.3 2.3 2.3 0 011 .2 1.9 1.9 0 01.6.5 2 2 0 01.4.7 3 3 0 01.2 1zm-2.8-.7a2.2 2.2 0 00.5 0 2 2 0 00.4-.2 2.3 2.3 0 00.4-.2 3.4 3.4 0 00.4-.4v-1.2a8.8 8.8 0 00-1.2 0 3.5 3.5 0 00-.9.3 1.2 1.2 0 00-.5.4.8.8 0 00-.1.4 1 1 0 000 .4.8.8 0 00.3.3.8.8 0 00.3.2 1.4 1.4 0 00.4 0zm4.4.7v-6h.6a.3.3 0 01.2 0 .4.4 0 01.1.2v1a2.8 2.8 0 01.9-1 1.8 1.8 0 011.5-.3 1.6 1.6 0 01.4.1l-.2.8a.2.2 0 01-.2.2 1 1 0 01-.2 0 1.6 1.6 0 00-.5-.1 1.4 1.4 0 00-1 .3 2.4 2.4 0 00-.6 1v3.8z" data-name="Caminho 10268"/></g><g data-name="Grupo 12230" transform="translate(-1014 -1499)"><g data-name="Grupo 12134" filter="url(#c)" transform="translate(1014 1499)"><rect width="129" height="228" fill="#f5f6fa" data-name="Retângulo 954" rx="15" transform="translate(427 43)"/></g><path fill="#fff" d="M1461.3 1552.5h16.2s2 7.5 11.8 7.5h34.8c9 0 10.7-7.5 10.7-7.5h14.2a15 15 0 0114.7 15.2v179.6a15 15 0 01-14.7 15.3h-87.7a15 15 0 01-14.6-15.3v-179.6a15 15 0 0114.6-15.2z" data-name="Caminho 10229"/><rect width="54" height="15" fill="#e6eaee" data-name="Retângulo 1227" opacity=".5" rx="4" transform="translate(1457 1583)"/><rect width="54" height="11" fill="#e6eaee" data-name="Retângulo 1263" opacity=".5" rx="4" transform="translate(1457 1639)"/><rect width="60" height="21" fill="#1957de" data-name="Retângulo 1262" rx="4" transform="translate(1496 1608)"/><rect width="85" height="21" fill="#1957de" data-name="Retângulo 1264" rx="4" transform="translate(1471 1660)"/><path fill="#fff" d="M1487.6 1669.4a3.8 3.8 0 01.3 5.1l-2.4 2.4a3.8 3.8 0 01-5.4-5.4l1.8-1.8a.3.3 0 01.5.3 4.7 4.7 0 00.1 1 .3.3 0 010 .3l-1.3 1.2a2.3 2.3 0 003.2 3.3l2.1-2a2.3 2.3 0 00-.6-3.8.3.3 0 01-.2-.3 1.4 1.4 0 01.4-.8l.1-.1a.3.3 0 01.4-.1 3.8 3.8 0 011 .7zm4.3-4.3a3.8 3.8 0 00-5.4 0l-2.4 2.4a3.8 3.8 0 001.3 5.8.3.3 0 00.4 0v-.2a1.4 1.4 0 00.5-.8.3.3 0 00-.2-.4 2.3 2.3 0 01-.6-3.6l2-2.1a2.3 2.3 0 013.3 3.3l-1.3 1.2a.3.3 0 000 .3 4.7 4.7 0 010 1 .3.3 0 00.6.3l1.8-1.8a3.8 3.8 0 000-5.4z"/><path fill="#fff" d="M1501.5 1674h-.4a.5.5 0 01-.3 0 .2.2 0 010-.2l-.2-.5-.3.3a2.2 2.2 0 01-.4.3 2 2 0 01-.5.1 2.6 2.6 0 01-.5 0 1.8 1.8 0 01-.6 0 1.3 1.3 0 01-.4-.3 1.2 1.2 0 01-.3-.4 1.5 1.5 0 01-.1-.6 1.1 1.1 0 01.1-.5 1.4 1.4 0 01.6-.5 3.5 3.5 0 011-.4 7.3 7.3 0 011.4-.1v-.4a1.4 1.4 0 00-.3-1 1 1 0 00-.7-.2 1.6 1.6 0 00-.6 0 2 2 0 00-.4.2l-.2.2a.4.4 0 01-.3.1.3.3 0 01-.1 0 .4.4 0 01-.1-.2l-.2-.2a2.9 2.9 0 01.9-.7 2.8 2.8 0 011-.2 2 2 0 01.8.2 1.5 1.5 0 01.6.4 1.7 1.7 0 01.3.6 2.5 2.5 0 01.2.8zm-2.4-.5a1.8 1.8 0 00.5 0 1.7 1.7 0 00.3-.2 2 2 0 00.4-.2 2.9 2.9 0 00.3-.3v-1a7.4 7.4 0 00-1 0 3 3 0 00-.8.2 1 1 0 00-.4.3.6.6 0 000 .4.8.8 0 000 .3.7.7 0 00.2.3.7.7 0 00.2.1 1.2 1.2 0 00.3 0zm6.6-3.7a.2.2 0 01-.2 0 .3.3 0 01-.2 0l-.2-.1a2.2 2.2 0 00-.3-.1 1.6 1.6 0 00-.5 0 1.3 1.3 0 00-.4 0 1 1 0 00-.3.1.7.7 0 00-.2.3.6.6 0 000 .3.5.5 0 000 .3 1 1 0 00.4.2 2.6 2.6 0 00.4.2l.5.1.5.2a1.8 1.8 0 01.4.3 1.1 1.1 0 01.3.3 1.1 1.1 0 010 .6 1.7 1.7 0 010 .6 1.4 1.4 0 01-.4.5 1.8 1.8 0 01-.6.4 2.5 2.5 0 01-.8 0 2.6 2.6 0 01-1 0 2.4 2.4 0 01-.7-.5l.2-.4a.3.3 0 01.2-.1.3.3 0 01.2 0l.3.2a1.9 1.9 0 00.3.2 1.6 1.6 0 00.5 0 1.4 1.4 0 00.5 0 1 1 0 00.3-.2.7.7 0 00.2-.3.8.8 0 000-.3.5.5 0 000-.3 1 1 0 00-.4-.3 2.4 2.4 0 00-.4-.2l-.5-.1-.5-.2a1.7 1.7 0 01-.4-.2 1.2 1.2 0 01-.3-.4 1.2 1.2 0 010-.6 1.3 1.3 0 010-.5 1.4 1.4 0 01.4-.5 1.7 1.7 0 01.5-.3 2.3 2.3 0 01.8-.1 2.4 2.4 0 011 .1 2.1 2.1 0 01.6.4zm4.3 0a.2.2 0 01-.1 0 .3.3 0 01-.2 0l-.2-.1a2.2 2.2 0 00-.4-.1 1.6 1.6 0 00-.4 0 1.3 1.3 0 00-.4 0 1 1 0 00-.3.1.7.7 0 00-.2.3.6.6 0 00-.1.3.5.5 0 00.1.3 1 1 0 00.3.2 2.6 2.6 0 00.4.2l.5.1.5.2a1.8 1.8 0 01.4.3 1.1 1.1 0 01.3.3 1.1 1.1 0 01.1.6 1.7 1.7 0 01-.1.6 1.4 1.4 0 01-.4.5 1.8 1.8 0 01-.6.4 2.5 2.5 0 01-.8 0 2.6 2.6 0 01-1 0 2.4 2.4 0 01-.7-.5l.2-.4a.3.3 0 01.1 0 .3.3 0 01.2-.1.3.3 0 01.2 0l.2.2a1.9 1.9 0 00.3.2 1.6 1.6 0 00.6 0 1.4 1.4 0 00.4 0 1 1 0 00.3-.2.7.7 0 00.2-.3.8.8 0 000-.3.5.5 0 000-.3 1 1 0 00-.3-.3 2.4 2.4 0 00-.4-.1l-.5-.2-.5-.2a1.7 1.7 0 01-.4-.2 1.2 1.2 0 01-.3-.4 1.2 1.2 0 01-.1-.6 1.3 1.3 0 010-.5 1.4 1.4 0 01.4-.5 1.7 1.7 0 01.6-.3 2.3 2.3 0 01.8-.1 2.4 2.4 0 01.9.1 2.1 2.1 0 01.6.4zm2.5-.9v5.1h-1v-5zm.2-1.6a.6.6 0 010 .3.7.7 0 01-.2.2.7.7 0 01-.2.1.6.6 0 01-.3 0 .6.6 0 01-.2 0 .7.7 0 01-.2-.1.7.7 0 01-.1-.2.6.6 0 01-.1-.3.6.6 0 010-.2.6.6 0 01.2-.2.7.7 0 01.2-.1.6.6 0 01.2 0 .6.6 0 01.3 0 .7.7 0 01.2 0 .7.7 0 01.1.3.6.6 0 010 .2zm1.3 6.7v-5h.6a.2.2 0 01.2.1v.6a2.8 2.8 0 01.8-.6 2 2 0 011-.2 1.8 1.8 0 01.7 0 1.4 1.4 0 01.5.5 1.7 1.7 0 01.3.6 2.6 2.6 0 01.2.8v3.2h-1v-3.2a1.4 1.4 0 00-.2-1 1 1 0 00-.8-.2 1.5 1.5 0 00-.7.2 2.4 2.4 0 00-.7.5v3.7zm9.3 0h-.4a.5.5 0 01-.2 0 .2.2 0 010-.2l-.2-.5-.4.3a2.2 2.2 0 01-.4.3 2 2 0 01-.4.1 2.6 2.6 0 01-.6 0 1.8 1.8 0 01-.5 0 1.3 1.3 0 01-.5-.2 1.2 1.2 0 01-.3-.5 1.5 1.5 0 010-.6 1.1 1.1 0 01.1-.5 1.4 1.4 0 01.5-.5 3.5 3.5 0 011-.4 7.3 7.3 0 011.4-.1v-.4a1.4 1.4 0 00-.2-1 1 1 0 00-.8-.2 1.6 1.6 0 00-.5 0 2 2 0 00-.4.2l-.3.2a.4.4 0 01-.2.1.3.3 0 01-.2 0 .4.4 0 010-.2l-.2-.3a2.9 2.9 0 01.9-.6 2.8 2.8 0 011-.2 2 2 0 01.8.2 1.5 1.5 0 01.6.4 1.7 1.7 0 01.3.6 2.5 2.5 0 01.1.8zm-2.3-.5a1.8 1.8 0 00.4 0 1.7 1.7 0 00.4-.2 2 2 0 00.3-.2 2.9 2.9 0 00.3-.3v-1a7.4 7.4 0 00-1 0 3 3 0 00-.7.2 1 1 0 00-.4.3.6.6 0 00-.1.4.8.8 0 000 .3.7.7 0 00.2.3.7.7 0 00.3.1 1.2 1.2 0 00.3 0zm3.4 0a.6.6 0 010-.3.6.6 0 01.2-.2.6.6 0 01.2-.1.6.6 0 01.2 0 .6.6 0 01.2 0 .6.6 0 01.2.1.6.6 0 01.2.2.6.6 0 010 .2.6.6 0 010 .3.6.6 0 01-.2.2.6.6 0 01-.2.1.6.6 0 01-.2 0 .6.6 0 01-.2 0 .6.6 0 01-.2-.1.6.6 0 01-.2-.2.6.6 0 010-.3zm6.1.5h-.4a.5.5 0 01-.2 0 .2.2 0 01-.1-.2l-.1-.5-.4.3a2.2 2.2 0 01-.4.3 2 2 0 01-.4.1 2.6 2.6 0 01-.6 0 1.8 1.8 0 01-.5 0 1.3 1.3 0 01-.5-.2 1.2 1.2 0 01-.3-.5 1.5 1.5 0 010-.6 1.1 1.1 0 010-.5 1.4 1.4 0 01.6-.5 3.5 3.5 0 011-.4 7.3 7.3 0 011.4-.1v-.4a1.4 1.4 0 00-.2-1 1 1 0 00-.8-.2 1.6 1.6 0 00-.5 0 2 2 0 00-.4.2l-.3.2a.4.4 0 01-.2.1.3.3 0 01-.2 0 .4.4 0 010-.2l-.2-.2a2.9 2.9 0 01.9-.7 2.8 2.8 0 011-.2 2 2 0 01.8.2 1.5 1.5 0 01.6.4 1.7 1.7 0 01.3.6 2.5 2.5 0 01.1.8zm-2.3-.5a1.8 1.8 0 00.4 0 1.7 1.7 0 00.4-.2 2 2 0 00.3-.2 2.9 2.9 0 00.3-.3v-1a7.4 7.4 0 00-1 0 3 3 0 00-.7.2 1 1 0 00-.4.3.6.6 0 00-.1.4.8.8 0 000 .3.7.7 0 00.2.3.7.7 0 00.3.1 1.2 1.2 0 00.3 0zm5.7-4.6a2.3 2.3 0 01.8.1 1.9 1.9 0 01.7.4 2 2 0 01.4.8 2.7 2.7 0 01.2 1 .6.6 0 010 .2.2.2 0 01-.3 0h-3.3a2.8 2.8 0 00.1.9 1.7 1.7 0 00.3.6 1.3 1.3 0 00.5.4 1.7 1.7 0 00.7 0 2 2 0 00.6 0 2.7 2.7 0 00.4-.2 3.2 3.2 0 00.3-.1.4.4 0 01.2-.1.2.2 0 01.1 0l.3.4a1.7 1.7 0 01-.4.3 2.5 2.5 0 01-.5.3 3.1 3.1 0 01-.5.1 3.3 3.3 0 01-.6 0 2.6 2.6 0 01-1-.1 2.1 2.1 0 01-.7-.5 2.4 2.4 0 01-.5-.9 3.4 3.4 0 01-.2-1.1 3 3 0 01.2-1 2.3 2.3 0 01.4-.8 2.2 2.2 0 01.8-.6 2.4 2.4 0 011-.1zm0 .6a1.4 1.4 0 00-1 .4 1.8 1.8 0 00-.5 1h2.8a1.8 1.8 0 00-.1-.6 1.3 1.3 0 00-.3-.4 1.1 1.1 0 00-.4-.3 1.4 1.4 0 00-.5 0zm3.3 4.6a.5.5 0 01-.2.3.5.5 0 01-.3 0h-.4l3-7.4a.5.5 0 01.2-.3.5.5 0 01.3 0h.4zm3.3-.7a.6.6 0 010-.2.6.6 0 01.2-.2.6.6 0 01.2-.1.6.6 0 01.3 0 .6.6 0 01.2 0 .6.6 0 01.2.1.6.6 0 01.1.2.6.6 0 010 .2.6.6 0 010 .3.6.6 0 01-.1.2.6.6 0 01-.2.1.6.6 0 01-.2 0 .6.6 0 01-.3 0 .6.6 0 01-.2-.1.6.6 0 01-.1-.2.6.6 0 010-.3zm5.2 0a.6.6 0 010-.2.6.6 0 01.2-.2.6.6 0 01.2-.1.6.6 0 01.2 0 .6.6 0 01.3 0 .6.6 0 01.2.1.6.6 0 010 .2.6.6 0 01.1.2.6.6 0 010 .3.6.6 0 01-.1.2.6.6 0 01-.2.1.6.6 0 01-.3 0 .6.6 0 01-.2 0 .6.6 0 01-.2-.1.6.6 0 01-.2-.2.6.6 0 010-.3zm-2.6 0a.6.6 0 010-.2.6.6 0 01.2-.2.6.6 0 01.2-.1.6.6 0 01.2 0 .6.6 0 01.3 0 .6.6 0 01.2.1.6.6 0 01.1.2.6.6 0 010 .2.6.6 0 010 .3.6.6 0 01-.1.2.6.6 0 01-.2.1.6.6 0 01-.3 0 .6.6 0 01-.2 0 .6.6 0 01-.2-.1.6.6 0 01-.1-.2.6.6 0 010-.3z" data-name="Caminho 10269"/></g></g></svg>