<svg xmlns="http://www.w3.org/2000/svg" viewBox="0 0 543 358"><defs><clipPath id="a"><path d="M0 0h543v358H0z"/></clipPath><filter id="b" width="559.4" height="388.8" x="-8.7" y="-17.5" filterUnits="userSpaceOnUse"><feOffset dy="20"/><feGaussianBlur result="blur" stdDeviation="20"/><feFlood flood-opacity=".2"/><feComposite in2="blur" operator="in"/><feComposite in="SourceGraphic"/></filter></defs><g clip-path="url(#a)"><g data-name="Grupo 12231" transform="translate(-236 -2062)"><g data-name="Grupo 12162" transform="translate(-98.7 1697.5)"><g filter="url(#b)" transform="translate(334.6 364.5)"><g fill="#f5f6fa" data-name="Caminho 10058"><path d="M485.8 290.9H56.4c-2.5 0-4.5-2.5-4.5-5.5V28.5c0-3 2-5.5 4.5-5.5h429.4c2.5 0 4.5 2.5 4.5 5.5v257c0 3-2 5.4-4.5 5.4z"/><path fill="#f5f8fc" d="M56.4 23.6c-2.3 0-4 2.2-4 5v256.8c0 2.8 1.7 5 4 5h429.4c2.2 0 4-2.2 4-5V28.5c0-2.7-1.8-5-4-5H56.4m0-1h429.4c2.7 0 5 2.7 5 6v257c0 3.2-2.3 5.9-5 5.9H56.4c-2.8 0-5-2.7-5-6V28.5c0-3.3 2.2-6 5-6z"/></g></g><path fill="#f6f8fe" d="M391 387h429.4a5 5 0 015 5v18.7H386V392a5 5 0 015-5z" data-name="Retângulo 718"/><circle cx="3.2" cy="3.2" r="3.2" fill="#e7f0f7" data-name="Elipse 62" transform="translate(393.6 394.8)"/><rect width="347.1" height="13" fill="#fff" data-name="Retângulo 719" rx="4" transform="translate(446.5 392)"/><circle cx="3.2" cy="3.2" r="3.2" fill="#e7f0f7" data-name="Elipse 62" transform="translate(404.4 394.8)"/><circle cx="3.2" cy="3.2" r="3.2" fill="#e7f0f7" data-name="Elipse 62" transform="translate(415.3 394.8)"/><path fill="#e7f0f7" d="M808.6 399.2a3 3 0 01-5.8 0 .3.3 0 01.5 0 2.4 2.4 0 102.4-2.3h-.2l.5.4a.3.3 0 01-.4.4l-1-1a.3.3 0 010-.3l1-1a.3.3 0 01.4.5l-.5.4h.2a3 3 0 012.9 3z" data-name="Caminho 228"/></g><path fill="#fff" d="M385 2119h244v234H385z" data-name="Retângulo 1266"/><rect width="69" height="7" fill="#f6f8fe" data-name="Retângulo 1280" rx="3.5" transform="translate(473 2134)"/><rect width="219" height="4" fill="#f6f8fe" data-name="Retângulo 1268" rx="2" transform="translate(398 2159)"/><rect width="219" height="4" fill="#f6f8fe" data-name="Retângulo 1269" rx="2" transform="translate(398 2167)"/><rect width="219" height="4" fill="#f6f8fe" data-name="Retângulo 1270" rx="2" transform="translate(398 2175)"/><rect width="219" height="4" fill="#f6f8fe" data-name="Retângulo 1271" rx="2" transform="translate(398 2183)"/><rect width="207" height="4" fill="#f6f8fe" data-name="Retângulo 1272" rx="2" transform="translate(398 2191)"/><rect width="219" height="4" fill="#f6f8fe" data-name="Retângulo 1273" rx="2" transform="translate(398 2209)"/><rect width="219" height="4" fill="#f6f8fe" data-name="Retângulo 1289" rx="2" transform="translate(398 2259)"/><rect width="219" height="4" fill="#f6f8fe" data-name="Retângulo 1274" rx="2" transform="translate(398 2217)"/><rect width="219" height="4" fill="#f6f8fe" data-name="Retângulo 1288" rx="2" transform="translate(398 2267)"/><rect width="219" height="4" fill="#f6f8fe" data-name="Retângulo 1283" rx="2" transform="translate(398 2305)"/><rect width="219" height="4" fill="#f6f8fe" data-name="Retângulo 1275" rx="2" transform="translate(398 2225)"/><rect width="219" height="4" fill="#f6f8fe" data-name="Retângulo 1287" rx="2" transform="translate(398 2275)"/><rect width="175" height="4" fill="#f6f8fe" data-name="Retângulo 1284" rx="2" transform="translate(398 2313)"/><rect width="219" height="4" fill="#f6f8fe" data-name="Retângulo 1276" rx="2" transform="translate(398 2233)"/><rect width="219" height="4" fill="#f6f8fe" data-name="Retângulo 1286" rx="2" transform="translate(398 2283)"/><rect width="63" height="4" fill="#f6f8fe" data-name="Retângulo 1282" rx="2" transform="translate(398 2241)"/><rect width="141" height="4" fill="#f6f8fe" data-name="Retângulo 1285" rx="2" transform="translate(398 2291)"/><g data-name="Grupo 12163" transform="translate(-825 598)"><rect width="62" height="20" fill="#185bde" data-name="Retângulo 1261" rx="2" transform="translate(1301 1725)"/><path fill="#fff" d="M1322.3 1739h-1a.5.5 0 01-.3 0 .5.5 0 01-.2-.3l-.5-1.5h-3l-.6 1.5a.5.5 0 01-.1.2.4.4 0 01-.3.1h-1l2.8-7.2h1.4zm-4.7-2.7h2.3l-.8-2.4-.2-.4-.1-.5q0 .3-.2.5t0 .4zm8.4-1.4a.3.3 0 01-.2.1.4.4 0 01-.2 0l-.2-.1a2.2 2.2 0 00-.4-.2 1.5 1.5 0 00-.4 0 1 1 0 00-.5.1.5.5 0 00-.2.4.4.4 0 000 .3 1 1 0 00.3.2 2.8 2.8 0 00.4.2l.5.1.5.2a1.6 1.6 0 01.4.3 1.2 1.2 0 01.3.3 1.2 1.2 0 010 .6 1.7 1.7 0 010 .7 1.5 1.5 0 01-.5.5 1.9 1.9 0 01-.6.3 2.8 2.8 0 01-.9.2 2.8 2.8 0 01-.5 0 3 3 0 01-.5-.2 2.7 2.7 0 01-.4-.2 2 2 0 01-.4-.3l.3-.4a.4.4 0 01.1-.2.4.4 0 01.2 0 .4.4 0 01.3 0l.2.2a2.1 2.1 0 00.3.1 1.4 1.4 0 00.5.1 1.2 1.2 0 00.4 0 .8.8 0 00.2-.2.5.5 0 00.2-.2.6.6 0 000-.2.4.4 0 00-.1-.3 1 1 0 00-.3-.2 2.8 2.8 0 00-.4-.2l-.5-.1a4.3 4.3 0 01-.4-.2 1.6 1.6 0 01-.4-.3 1.2 1.2 0 01-.3-.4 1.4 1.4 0 01-.1-.5 1.5 1.5 0 01.1-.6 1.4 1.4 0 01.4-.5 1.8 1.8 0 01.6-.4 2.5 2.5 0 01.8-.1 2.6 2.6 0 011 .2 2.2 2.2 0 01.7.4zm4.4 0a.3.3 0 01-.1 0 .3.3 0 01-.1.1.4.4 0 01-.2 0l-.3-.1a2.2 2.2 0 00-.3-.2 1.5 1.5 0 00-.4 0 1 1 0 00-.6.1.5.5 0 00-.2.4.4.4 0 00.1.3 1 1 0 00.3.2 2.8 2.8 0 00.4.2l.5.1.4.2a1.6 1.6 0 01.4.3 1.2 1.2 0 01.3.3 1.2 1.2 0 01.1.6 1.7 1.7 0 01-.1.7 1.5 1.5 0 01-.4.5 1.9 1.9 0 01-.6.4 2.8 2.8 0 01-1 0 2.8 2.8 0 01-.4 0 3 3 0 01-.5-.1 2.7 2.7 0 01-.4-.2 2 2 0 01-.4-.3l.3-.4a.4.4 0 01.1-.2.4.4 0 01.2 0 .4.4 0 01.2 0l.3.2a2.1 2.1 0 00.3.1 1.4 1.4 0 00.4.1 1.2 1.2 0 00.4 0 .8.8 0 00.3-.2.5.5 0 00.1-.2.6.6 0 000-.2.4.4 0 000-.3 1 1 0 00-.3-.2 2.8 2.8 0 00-.4-.2l-.5-.1a4.3 4.3 0 01-.4-.2 1.6 1.6 0 01-.4-.3 1.2 1.2 0 01-.3-.4 1.4 1.4 0 01-.1-.5 1.5 1.5 0 010-.6 1.4 1.4 0 01.4-.5 1.8 1.8 0 01.7-.4 2.5 2.5 0 01.8-.1 2.6 2.6 0 011 .2 2.2 2.2 0 01.7.4zm2.6-1v5.1h-1.2v-5.1zm.2-1.5a.7.7 0 010 .3.8.8 0 01-.2.2.8.8 0 01-.3.2.8.8 0 01-.3 0 .7.7 0 01-.3 0 .8.8 0 01-.2-.2.8.8 0 01-.2-.2.7.7 0 010-.3.8.8 0 010-.3.8.8 0 01.2-.3.8.8 0 01.2-.2.7.7 0 01.3 0 .8.8 0 01.3 0 .8.8 0 01.3.2.8.8 0 01.2.3.7.7 0 010 .3zm1.2 6.6v-5.1h.8a.3.3 0 01.3.2v.4a2.8 2.8 0 01.4-.3 2.3 2.3 0 01.4-.2 1.9 1.9 0 01.4-.2 2.2 2.2 0 01.5 0 1.8 1.8 0 01.7.1 1.5 1.5 0 01.6.4 1.8 1.8 0 01.3.6 2.6 2.6 0 01.1.8v3.3h-1.2v-3.3a1.1 1.1 0 00-.3-.7.8.8 0 00-.6-.2 1.3 1.3 0 00-.6.1 2.1 2.1 0 00-.5.4v3.7zm9.7 0h-.5a.6.6 0 01-.3 0 .3.3 0 01-.1-.3l-.2-.3a4.2 4.2 0 01-.3.3 2.3 2.3 0 01-.4.2 2 2 0 01-.4.1 2.6 2.6 0 01-.5 0 2 2 0 01-.6 0 1.3 1.3 0 01-.5-.3 1.2 1.2 0 01-.3-.4 1.5 1.5 0 01-.1-.6 1.2 1.2 0 01.1-.6 1.4 1.4 0 01.5-.5 3.2 3.2 0 011-.4 6.7 6.7 0 011.4-.1v-.3a1.1 1.1 0 00-.2-.8.8.8 0 00-.6-.2 1.5 1.5 0 00-.5 0 2 2 0 00-.4.2l-.2.1a.6.6 0 01-.3.1.4.4 0 01-.2 0 .5.5 0 01-.2-.2l-.2-.4a3 3 0 012.1-.8 2 2 0 01.8.1 1.7 1.7 0 01.6.4 1.8 1.8 0 01.4.7 2.4 2.4 0 01.1.8zm-2.4-.8a1.6 1.6 0 00.4 0 1.3 1.3 0 00.3-.1 1.6 1.6 0 00.3-.2 2.5 2.5 0 00.2-.2v-.9a6.8 6.8 0 00-.9.1 2.4 2.4 0 00-.6.2.7.7 0 00-.3.2.5.5 0 000 .3.5.5 0 00.1.5.8.8 0 00.5.1zm3.7.8v-5.1h.7a.4.4 0 01.2 0 .4.4 0 01.1.3l.1.6a2.4 2.4 0 01.7-.8 1.4 1.4 0 01.8-.2 1 1 0 01.6.1l-.1 1a.2.2 0 01-.1.1.2.2 0 01-.1 0 .8.8 0 01-.2 0 1.4 1.4 0 00-.4 0 1 1 0 00-.6.2 1.6 1.6 0 00-.5.6v3.2z" data-name="Caminho 10266"/></g></g></g></svg>