<svg xmlns="http://www.w3.org/2000/svg" viewBox="0 0 543 350"><defs><clipPath id="a"><path d="M0 0h543v350H0z"/></clipPath><filter id="b" width="456" height="388.8" x="43.3" y="-8.5" filterUnits="userSpaceOnUse"><feOffset dy="20"/><feGaussianBlur result="blur" stdDeviation="20"/><feFlood flood-opacity=".2"/><feComposite in2="blur" operator="in"/><feComposite in="SourceGraphic"/></filter></defs><g clip-path="url(#a)" data-name="Grupo 12232"><g data-name="Grupo 12162" transform="translate(-282.7 -355.5)"><g filter="url(#b)" transform="translate(282.6 355.5)"><g fill="#f5f6fa" data-name="Caminho 10058"><path d="M435.5 299.9H107.2c-.9 0-1.7-.6-2.3-1.5-.7-1-1-2.5-1-4V37.5c0-1.5.3-2.9 1-4 .6-1 1.4-1.5 2.3-1.5h328.3c.8 0 1.6.6 2.3 1.6.6 1 1 2.4 1 4v256.8c0 1.5-.4 3-1 4-.7 1-1.5 1.5-2.3 1.5z"/><path fill="#f5f8fc" d="M107.2 32.5c-1 0-1.6.9-1.9 1.3a7 7 0 00-1 3.7v257a7 7 0 001 3.6c.3.5 1 1.3 1.9 1.3h328.3c.9 0 1.5-.8 1.8-1.3a7 7 0 001-3.7V37.5a7 7 0 00-1-3.7c-.3-.4-1-1.2-1.8-1.2H107.2m0-1h328.3c2.1 0 3.8 2.6 3.8 6v256.8c0 3.3-1.7 6-3.8 6H107.2c-2.1 0-3.8-2.7-3.8-6V37.5c0-3.3 1.7-6 3.8-6z"/></g></g><path fill="#f6f8fe" d="M391 387h326a5 5 0 015 5v18.7H386V392a5 5 0 015-5z" data-name="Retângulo 718"/><circle cx="3.2" cy="3.2" r="3.2" fill="#e7f0f7" data-name="Elipse 62" transform="translate(393.6 394.8)"/><rect width="243.7" height="13" fill="#fff" data-name="Retângulo 719" rx="4" transform="translate(446.5 392)"/><circle cx="3.2" cy="3.2" r="3.2" fill="#e7f0f7" data-name="Elipse 62" transform="translate(404.4 394.8)"/><circle cx="3.2" cy="3.2" r="3.2" fill="#e7f0f7" data-name="Elipse 62" transform="translate(415.3 394.8)"/><path fill="#e7f0f7" d="M705.1 399.2a3 3 0 01-5.8 0 .3.3 0 01.5 0 2.4 2.4 0 102.4-2.3h-.1l.4.4a.3.3 0 01-.3.4l-1-1a.3.3 0 010-.3l1-1a.3.3 0 01.3.5l-.4.4h.1a3 3 0 013 3z" data-name="Caminho 228"/></g><path fill="#fff" d="M202 104h138v124H202z" data-name="Retângulo 1266"/><g fill="none" stroke="#f6f8fe" data-name="Retângulo 1291" transform="translate(222 164)"><rect width="100" height="20" stroke="none" rx="3"/><rect width="99" height="19" x=".5" y=".5" rx="2.5"/></g><g data-name="Grupo 12163" transform="translate(-1061 -1529)"><rect width="62" height="20" fill="#185bde" data-name="Retângulo 1261" rx="2" transform="translate(1301 1725)"/><path fill="#fff" d="M1320.6 1739h-1a.5.5 0 01-.3 0 .5.5 0 01-.2-.3l-.5-1.5h-3l-.6 1.5a.5.5 0 01-.1.2.4.4 0 01-.3.1h-1l2.8-7.2h1.3zm-4.7-2.7h2.3l-.9-2.4-.1-.4-.1-.5-.2.5-.1.4zm7.5 2.7h-1.1l-2-5.1h1a.4.4 0 01.2 0 .3.3 0 01.1.2l1 2.7.1.5.1.5.1-.5a4.3 4.3 0 01.2-.5l1-2.7a.3.3 0 01.1-.2.4.4 0 01.2 0h1zm6.8 0h-.6a.6.6 0 01-.3 0 .3.3 0 01-.1-.3l-.1-.3a4.2 4.2 0 01-.4.3 2.3 2.3 0 01-.4.2 2 2 0 01-.4.1 2.6 2.6 0 01-.5 0 2 2 0 01-.6 0 1.3 1.3 0 01-.5-.3 1.2 1.2 0 01-.3-.4 1.5 1.5 0 01-.1-.6 1.2 1.2 0 01.1-.6 1.4 1.4 0 01.6-.5 3.2 3.2 0 01.9-.4 6.7 6.7 0 011.5-.1v-.3a1.1 1.1 0 00-.3-.8.8.8 0 00-.6-.2 1.5 1.5 0 00-.5 0 2 2 0 00-.3.2l-.3.1a.6.6 0 01-.3.1.4.4 0 01-.2 0 .5.5 0 01-.1-.2l-.3-.4a3 3 0 012.2-.8 2 2 0 01.8.1 1.7 1.7 0 01.6.4 1.8 1.8 0 01.3.7 2.4 2.4 0 01.2.8zm-2.4-.8a1.6 1.6 0 00.3 0 1.3 1.3 0 00.3-.1 1.6 1.6 0 00.3-.2 2.5 2.5 0 00.3-.2v-.9a6.8 6.8 0 00-1 .1 2.4 2.4 0 00-.5.2.7.7 0 00-.3.2.5.5 0 00-.1.3.5.5 0 00.2.5.8.8 0 00.5.1zm3.6.8v-5.1h.7a.3.3 0 01.4.2v.4a2.8 2.8 0 01.4-.3 2.3 2.3 0 01.3-.2 1.9 1.9 0 01.4-.2 2.2 2.2 0 01.5 0 1.8 1.8 0 01.8.1 1.5 1.5 0 01.5.4 1.8 1.8 0 01.3.6 2.6 2.6 0 01.2.8v3.3h-1.3v-3.3a1.1 1.1 0 00-.2-.7.8.8 0 00-.7-.2 1.3 1.3 0 00-.6.1 2.1 2.1 0 00-.5.4v3.7zm7 1.1a.3.3 0 01.1 0 .8.8 0 00.2.1.8.8 0 00.1 0 .4.4 0 00.3 0 .2.2 0 000-.2l-.1-.2a3 3 0 00-.6-.1l.2-.7a2.2 2.2 0 01-.7-.2 2.1 2.1 0 01-.6-.6 2.6 2.6 0 01-.4-.8 3.3 3.3 0 01-.2-1 3.3 3.3 0 01.2-1 2.4 2.4 0 01.5-.9 2.2 2.2 0 01.7-.5 2.7 2.7 0 011.1-.2 2.5 2.5 0 011 .2 2.5 2.5 0 01.8.5l-.3.5a.6.6 0 01-.1 0 .2.2 0 01-.2.1.3.3 0 01-.2 0l-.2-.2a1.6 1.6 0 00-.3-.1 1.4 1.4 0 00-.4 0 1.3 1.3 0 00-.6 0 1 1 0 00-.4.4 1.5 1.5 0 00-.2.5 2.9 2.9 0 00-.1.7 2.8 2.8 0 000 .8 1.6 1.6 0 00.3.5 1 1 0 00.4.3 1.2 1.2 0 00.6.1 1.3 1.3 0 00.4 0 1.5 1.5 0 00.3-.2q.2 0 .3-.2a.3.3 0 01.2 0 .3.3 0 01.2 0l.3.5a2.1 2.1 0 01-.7.6 2.8 2.8 0 01-1 .3v.2a1.3 1.3 0 01.6.3.6.6 0 01.2.4.5.5 0 010 .3.7.7 0 01-.3.2 1.4 1.4 0 01-.4.2 2.2 2.2 0 01-.5 0 2.3 2.3 0 01-.4 0 2.6 2.6 0 01-.3 0v-.5a.1.1 0 01.2 0zm7.5-1.1h-.6a.6.6 0 01-.3 0 .3.3 0 01-.1-.3l-.1-.3a4.2 4.2 0 01-.4.3 2.3 2.3 0 01-.4.2 2 2 0 01-.4.1 2.6 2.6 0 01-.5 0 2 2 0 01-.6 0 1.3 1.3 0 01-.5-.3 1.2 1.2 0 01-.3-.4 1.5 1.5 0 01-.1-.6 1.2 1.2 0 01.1-.6 1.4 1.4 0 01.5-.5 3.2 3.2 0 011-.4 6.7 6.7 0 011.5-.1v-.3a1.1 1.1 0 00-.3-.8.8.8 0 00-.6-.2 1.5 1.5 0 00-.5 0 2 2 0 00-.3.2l-.3.1a.6.6 0 01-.3.1.4.4 0 01-.2 0 .5.5 0 01-.2-.2l-.2-.4a3 3 0 012.2-.8 2 2 0 01.8.1 1.7 1.7 0 01.6.4 1.8 1.8 0 01.3.7 2.4 2.4 0 01.2.8zm-2.4-.8a1.6 1.6 0 00.3 0 1.3 1.3 0 00.3-.1 1.6 1.6 0 00.3-.2 2.5 2.5 0 00.2-.2v-.9a6.8 6.8 0 00-.9.1 2.4 2.4 0 00-.5.2.7.7 0 00-.3.2.5.5 0 00-.1.3.5.5 0 00.2.5.8.8 0 00.5.1zm3.6.8v-5.1h.7a.4.4 0 01.3 0 .4.4 0 010 .3l.1.6a2.4 2.4 0 01.7-.8 1.4 1.4 0 01.8-.2 1 1 0 01.6.1l-.1 1a.2.2 0 010 .1.2.2 0 01-.2 0 .8.8 0 01-.2 0 1.4 1.4 0 00-.4 0 1 1 0 00-.6.2 1.6 1.6 0 00-.5.6v3.2z" data-name="Caminho 10265"/></g><text fill="#b9c1cc" font-family="Lato-Regular, Lato" font-size="10" transform="translate(243 131)"><tspan x="-13.3" y="0">Nome</tspan></text><text fill="#b9c1cc" font-family="Lato-Regular, Lato" font-size="10" transform="translate(239 154)"><tspan x="-9.3" y="0">CPF</tspan></text><text fill="#b9c1cc" data-name="Data de nascimento" font-family="Lato-Regular, Lato" font-size="10" transform="translate(273 178)"><tspan x="-43.3" y="0">Data de nascimento</tspan></text><g fill="none" stroke="#f6f8fe" data-name="Retângulo 1292" transform="translate(222 140)"><rect width="100" height="20" stroke="none" rx="3"/><rect width="99" height="19" x=".5" y=".5" rx="2.5"/></g><g fill="none" stroke="#f6f8fe" data-name="Retângulo 1293" transform="translate(222 117)"><rect width="100" height="20" stroke="none" rx="3"/><rect width="99" height="19" x=".5" y=".5" rx="2.5"/></g></g></svg>