<svg xmlns="http://www.w3.org/2000/svg" viewBox="0 0 543 366"><defs><clipPath id="a"><path d="M0 0h543v366H0z"/></clipPath><filter id="b" width="433.4" height="383.1" x="55.2" y="-3" filterUnits="userSpaceOnUse"><feOffset dy="20"/><feGaussianBlur result="blur" stdDeviation="20"/><feFlood flood-opacity=".2"/><feComposite in2="blur" operator="in"/><feComposite in="SourceGraphic"/></filter></defs><g clip-path="url(#a)"><g data-name="Grupo 12233" transform="translate(-217 -3038)"><g filter="url(#b)" transform="translate(217 3038)"><g fill="#fff" data-name="Caminho 10236"><path d="M419.6 299.6H124.3a8.6 8.6 0 01-8.6-8.7V46c0-4.8 3.8-8.6 8.6-8.6h295.3c4.7 0 8.5 3.8 8.5 8.6V291c0 4.8-3.8 8.7-8.5 8.7z"/><path fill="#e6eaee" d="M124.3 38c-4.5 0-8 3.6-8 8.1V291c0 4.5 3.5 8.2 8 8.2h295.3c4.4 0 8-3.7 8-8.2V46c0-4.5-3.6-8.1-8-8.1H124.3m0-1h295.3c5 0 9 4 9 9.1V291c0 5-4 9.2-9 9.2H124.3c-5 0-9-4.1-9-9.2V46c0-5 4-9.1 9-9.1z"/></g></g><g data-name="Grupo 12166" transform="translate(556 3286)"><rect width="66.1" height="25.7" fill="#1957de" data-name="Ret창ngulo 574" rx="4"/><path fill="#fff" d="M23.2 16.6h-1a.5.5 0 01-.3 0 .5.5 0 01-.2-.3l-.5-1.5h-3l-.5 1.5a.5.5 0 01-.2.2.4.4 0 01-.3.1h-1L19 9.4h1.4zM18.5 14H21l-1-2.4V11l-.2-.5-.1.5-.2.4zm8.4-1.4a.3.3 0 01-.2.1.4.4 0 01-.2 0l-.2-.1a2.2 2.2 0 00-.3-.2 1.5 1.5 0 00-.4 0 1 1 0 00-.6.2.5.5 0 00-.2.4.4.4 0 000 .2 1 1 0 00.4.2 2.8 2.8 0 00.4.2l.4.1.5.2a1.6 1.6 0 01.4.3 1.2 1.2 0 01.3.3 1.2 1.2 0 010 .6 1.7 1.7 0 010 .7 1.5 1.5 0 01-.4.5 1.9 1.9 0 01-.7.4 2.8 2.8 0 01-.9 0 2.8 2.8 0 01-.5 0 3 3 0 01-.5 0 2.7 2.7 0 01-.4-.3 2 2 0 01-.3-.2l.2-.5a.4.4 0 01.2-.1.4.4 0 01.2 0 .4.4 0 01.2 0l.2.1a2.1 2.1 0 00.3.2 1.4 1.4 0 00.5 0 1.2 1.2 0 00.4 0 .8.8 0 00.2-.2.5.5 0 00.2-.2.6.6 0 000-.2.4.4 0 000-.3 1 1 0 00-.4-.2 2.8 2.8 0 00-.4-.1l-.4-.2a4.3 4.3 0 01-.5-.2 1.6 1.6 0 01-.4-.3 1.2 1.2 0 01-.3-.4 1.4 1.4 0 010-.5 1.5 1.5 0 010-.6 1.4 1.4 0 01.4-.5 1.8 1.8 0 01.6-.4 2.5 2.5 0 01.8-.1 2.6 2.6 0 011 .2 2.2 2.2 0 01.7.4zm4.4 0a.3.3 0 01-.2.1.4.4 0 01-.2 0l-.3-.1a2.2 2.2 0 00-.3-.2 1.5 1.5 0 00-.4 0 1 1 0 00-.5.2.5.5 0 00-.3.4.4.4 0 00.2.2 1 1 0 00.2.2 2.8 2.8 0 00.4.2l.5.1.5.2a1.6 1.6 0 01.4.3 1.2 1.2 0 01.2.3 1.2 1.2 0 01.2.6 1.7 1.7 0 01-.2.7 1.5 1.5 0 01-.4.5 1.9 1.9 0 01-.6.4 2.8 2.8 0 01-.9 0 2.8 2.8 0 01-.5 0 3 3 0 01-.5 0 2.7 2.7 0 01-.4-.3 2 2 0 01-.4-.2l.3-.5a.4.4 0 01.1-.1.4.4 0 01.2 0 .4.4 0 01.3 0l.2.1a2.1 2.1 0 00.3.2 1.4 1.4 0 00.5 0 1.2 1.2 0 00.3 0 .8.8 0 00.3-.2.5.5 0 00.2-.2.6.6 0 000-.2.4.4 0 00-.1-.3 1 1 0 00-.3-.2 2.8 2.8 0 00-.4-.2l-.5-.1a4.3 4.3 0 01-.4-.2 1.6 1.6 0 01-.4-.3 1.2 1.2 0 01-.3-.4 1.4 1.4 0 01-.1-.5 1.5 1.5 0 01.1-.6 1.4 1.4 0 01.4-.5 1.8 1.8 0 01.6-.4 2.5 2.5 0 01.8-.1 2.6 2.6 0 011 .2 2.2 2.2 0 01.7.4zm2.7-1v5.1h-1.3v-5.1zM34 10a.7.7 0 010 .3.8.8 0 01-.2.2.8.8 0 01-.2.2.8.8 0 01-.4 0 .7.7 0 01-.3 0 .8.8 0 01-.2-.2.8.8 0 01-.2-.2.7.7 0 010-.3.8.8 0 010-.3.8.8 0 01.2-.3.8.8 0 01.3-.1.7.7 0 01.3-.1.8.8 0 01.3 0 .8.8 0 01.2.2.8.8 0 01.2.3.7.7 0 010 .3zm1.3 6.6v-5.1h.7a.3.3 0 01.3.2l.1.4a2.8 2.8 0 01.3-.3 2.3 2.3 0 01.4-.2 1.9 1.9 0 01.4-.2 2.2 2.2 0 01.5 0 1.8 1.8 0 01.7.1 1.5 1.5 0 01.6.4 1.8 1.8 0 01.3.7 2.6 2.6 0 01.1.7v3.3h-1.2v-3.3a1.1 1.1 0 00-.2-.7.8.8 0 00-.7-.2 1.3 1.3 0 00-.6.1 2.1 2.1 0 00-.5.4v3.7zm9.7 0h-.6a.6.6 0 01-.3 0 .3.3 0 01-.1-.3L44 16a4.2 4.2 0 01-.4.3 2.3 2.3 0 01-.4.2 2 2 0 01-.4.1 2.6 2.6 0 01-.5 0 2 2 0 01-.6 0 1.3 1.3 0 01-.5-.3 1.2 1.2 0 01-.3-.4 1.5 1.5 0 01-.1-.6 1.2 1.2 0 01.1-.6 1.4 1.4 0 01.5-.5 3.2 3.2 0 011-.4 6.7 6.7 0 011.5-.1v-.3a1.1 1.1 0 00-.3-.8.8.8 0 00-.6-.2 1.5 1.5 0 00-.5 0 2 2 0 00-.3.2l-.3.1a.6.6 0 01-.3.1.4.4 0 01-.2 0 .5.5 0 01-.1-.2l-.3-.4a3 3 0 012.2-.8 2 2 0 01.8.1 1.7 1.7 0 01.6.4 1.8 1.8 0 01.3.7 2.4 2.4 0 01.2.8zm-2.4-.8a1.6 1.6 0 00.3 0 1.3 1.3 0 00.3-.1 1.6 1.6 0 00.3-.2 2.5 2.5 0 00.3-.2v-.9a6.8 6.8 0 00-1 .1 2.4 2.4 0 00-.5.2.7.7 0 00-.3.2.5.5 0 00-.1.3.5.5 0 00.2.5.8.8 0 00.5.1zm3.6.8v-5.1h.7a.4.4 0 01.3 0 .4.4 0 010 .3l.1.6a2.4 2.4 0 01.7-.7 1.4 1.4 0 01.8-.3 1 1 0 01.6.2l-.1.9a.2.2 0 010 .1.2.2 0 01-.2 0 .8.8 0 01-.2 0 1.4 1.4 0 00-.4 0 1 1 0 00-.6.2 1.6 1.6 0 00-.5.6v3.2z" data-name="Caminho 10264"/></g><g fill="#f5f6fa" stroke="#dce0e6" data-name="Ret창ngulo 1295" transform="translate(351 3155)"><rect width="271" height="115" stroke="none" rx="5"/><rect width="270" height="114" x=".5" y=".5" fill="none" rx="4.5"/></g><path fill="none" stroke="#959cae" stroke-linecap="round" stroke-width="2" d="M386.7 3234.4h205.5" data-name="Linha 416"/><path fill="#ced3db" d="M391.6 3224.5l2.7-2.7.5-.5a.2.2 0 000-.3l-.6-.6a.2.2 0 00-.3 0l-3.1 3.2-3.2-3.2a.2.2 0 00-.3 0l-.5.6a.2.2 0 000 .3l3.1 3.2-3.1 3.1a.2.2 0 000 .3l.5.6a.2.2 0 00.3 0l3.2-3.2 2.6 2.6.5.6a.2.2 0 00.3 0l.6-.6a.2.2 0 000-.3z"/><path fill="#1f2f83" d="M443.6 3213a4.4 4.4 0 00-1.3-.7 7.4 7.4 0 00-1.5-.4 8.7 8.7 0 00-1.6 0h-1.5a20.6 20.6 0 00-4.1 1.2 31.4 31.4 0 00-7.4 4 22.3 22.3 0 00-3 2.8l-1.1 1.3a8.3 8.3 0 00-1 1.7 4.9 4.9 0 00-.4 1.7 2.6 2.6 0 00.5 1.7 2 2 0 001.1.7 6.1 6.1 0 001.6.2 10.7 10.7 0 001.5-.1l1.3-.2a30.2 30.2 0 005.1-1l5.1-1.7 5.1-1.7a32.7 32.7 0 015.2-1.1h.6a3.5 3.5 0 01.9 0 .9.9 0 01.5.3q.2.2-.2.7a.7.7 0 01-.4.3 4.3 4.3 0 01-.6.1h-.6l-.5.1a38.7 38.7 0 00-5 1.2l-5.1 1.7q-2.5.9-5.2 1.6a33 33 0 01-5.2 1l-1.6.2a9.3 9.3 0 01-1.7 0 6.5 6.5 0 01-1.7-.4 2.5 2.5 0 01-1.3-1 3.4 3.4 0 01-.8-1.7 5.2 5.2 0 01.1-1.9 7.8 7.8 0 01.8-1.9 11.6 11.6 0 011-1.6 22 22 0 013.8-3.7 34.5 34.5 0 014.3-2.9 32 32 0 014.8-2.2 16.6 16.6 0 015.2-1 10.3 10.3 0 012.3.2 6.2 6.2 0 012.1.8l.7.4a1 1 0 01.4.6.6.6 0 010 .4.8.8 0 01-.3.4.8.8 0 01-.4 0 .6.6 0 01-.5 0zm8.4 8.3a1.5 1.5 0 01.2.1 1 1 0 01.2.2 2.2 2.2 0 011 .1q.5.3.6.6a1.2 1.2 0 01-.2.7 7.1 7.1 0 001.1-.2l1.2-.4 1.1-.5a11 11 0 011.1-.4l.6-.2a.7.7 0 01.6.2.7.7 0 01.3.4.6.6 0 010 .4 1 1 0 01-.3.3.8.8 0 01-.4.2 6.7 6.7 0 00-1.6.5l-1.6.6-.8.3a7 7 0 01-.8.2 4.4 4.4 0 01-1 .2 2.4 2.4 0 01-.8-.2 1 1 0 01-.5-.5 1 1 0 010-.7 7.5 7.5 0 00-1 .3l-1.4.4a7.6 7.6 0 01-1.3.4 2.7 2.7 0 01-1 0 1 1 0 01-.6-.5 1 1 0 010-1 2.3 2.3 0 01.7-.9 5 5 0 011-.5 4.8 4.8 0 011-.3 5.7 5.7 0 011.3 0 6.5 6.5 0 011.3.2zm-3.5 1.6l.6-.2q.3 0 .5-.2a2.8 2.8 0 00-1 .4zm10.3-.3a.9.9 0 01-.4-.6.6.6 0 01.2-.5.8.8 0 01.5-.2.6.6 0 01.5.1 1.8 1.8 0 00.9.4l1.2.2a6.1 6.1 0 011 .2.8.8 0 01.7.5l2-.5 1.7-.4.9-.2 1-.2a6 6 0 011-.1 3.1 3.1 0 01.9 0 .7.7 0 01.3.3.9.9 0 01.2.4.7.7 0 010 .3.7.7 0 01-.3.3 1 1 0 01-.7.2 3.1 3.1 0 00-.7 0 33.2 33.2 0 00-3.4.7q-1.7.3-3.3.9a4.5 4.5 0 00-.6.3 5.7 5.7 0 01-.8.3 2 2 0 01-.7.1.6.6 0 01-.5-.3.8.8 0 01-.1-.5.9.9 0 01.2-.4 1.7 1.7 0 01.4-.4 2.1 2.1 0 01.5-.2h-.7q-.4 0-.7-.2a4.6 4.6 0 01-.7-.2 1.3 1.3 0 01-.5-.3zm11.7 0a.9.9 0 01-.3-.6.6.6 0 01.2-.5.8.8 0 01.4-.2.6.6 0 01.5.1 1.8 1.8 0 001 .4l1.2.2a6.1 6.1 0 011 .2.8.8 0 01.7.5l2-.5 1.7-.4.9-.2 1-.2a6 6 0 011-.1 3.1 3.1 0 01.9 0 .7.7 0 01.3.3.9.9 0 01.2.4.7.7 0 010 .3.7.7 0 01-.3.3 1 1 0 01-.7.2 3.1 3.1 0 00-.7 0 33.2 33.2 0 00-3.4.7q-1.7.3-3.4.9a4.5 4.5 0 00-.6.3 5.7 5.7 0 01-.7.3 2 2 0 01-.7.1.6.6 0 01-.6-.3.8.8 0 010-.5.9.9 0 01.2-.4 1.7 1.7 0 01.4-.4 2.1 2.1 0 01.5-.2h-.7q-.4 0-.7-.2a4.6 4.6 0 01-.7-.2 1.3 1.3 0 01-.6-.3zm18.9-6.1a1 1 0 01-.1.4.4.4 0 01-.3.2.7.7 0 01-.3 0 3.5 3.5 0 01-.4 0 1.2 1.2 0 01-.4.9 1.8 1.8 0 01-.8.4 4.8 4.8 0 01-1.1.2 6.7 6.7 0 01-1.3-.1 3.6 3.6 0 01-1-.3 1.5 1.5 0 01-.8-.6 1.1 1.1 0 010-1 1.5 1.5 0 01.7-.8 3.2 3.2 0 011-.4 5.7 5.7 0 011-.1 9.6 9.6 0 011 0 6.7 6.7 0 01.7 0 5.3 5.3 0 011 .2 2.5 2.5 0 01.7.4.8.8 0 01.4.6zm-6.7 4.8a1 1 0 01.5.2.7.7 0 01.3.4 1.3 1.3 0 010 .5v.5a2.9 2.9 0 01.4 0 1.5 1.5 0 00.4-.1l1.3-.4 1.7-.6a11.3 11.3 0 011.8-.4 1.6 1.6 0 01.6 0 1.1 1.1 0 01.5.3.6.6 0 01.2.4q0 .3-.4.5a.6.6 0 01-.3.2 3.3 3.3 0 00-.4 0l-.8.1-.8.2-1.5.5-1.5.5-1 .3a1.7 1.7 0 01-1.2 0 1 1 0 01-.4-.3 1.2 1.2 0 01-.2-.5 1.7 1.7 0 010-.6 5 5 0 01.2-.5.6.6 0 01-.1-.4.9.9 0 010-.3.7.7 0 01.3-.3.7.7 0 01.4-.2zm4.6-4a.4.4 0 00-.1-.6h-.1l-.7-.1a5.9 5.9 0 00-1 0 3 3 0 00-.8 0 1 1 0 00-.5.4q0 .3.3.4a3.5 3.5 0 00.7.2 5.7 5.7 0 00.8 0h.5l.5-.1a1.1 1.1 0 00.4-.3zm5.6 4a1.5 1.5 0 01.3.1 1 1 0 01.2.2 2.2 2.2 0 011 .1q.5.3.5.6a1.2 1.2 0 01-.1.7 7.1 7.1 0 001.1-.2l1.2-.4 1.1-.5a11 11 0 011-.4q.4 0 .7-.2a.7.7 0 01.6.2.7.7 0 01.3.4.6.6 0 010 .4 1 1 0 01-.3.3.8.8 0 01-.4.2 6.7 6.7 0 00-1.6.5l-1.6.6-.8.3a7 7 0 01-.9.2 4.4 4.4 0 01-.9.2 2.4 2.4 0 01-.8-.2 1 1 0 01-.5-.5 1 1 0 010-.7 7.5 7.5 0 00-1 .3l-1.4.4a7.6 7.6 0 01-1.3.4 2.7 2.7 0 01-1 0 1 1 0 01-.7-.5 1 1 0 010-1 2.3 2.3 0 01.8-.9 5 5 0 011-.5 4.8 4.8 0 011-.3 5.7 5.7 0 011.3 0 6.5 6.5 0 011.2.2zm-3.4 1.6l.5-.2.6-.2a2.8 2.8 0 00-1 .4zm10.6-1.6a1.3 1.3 0 01.4.1.7.7 0 01.3.2.8.8 0 01.3.6 1.1 1.1 0 01-.2.4q.7 0 1.4-.3l1.3-.3.7-.2a5.4 5.4 0 01.7-.2 4.4 4.4 0 01.8 0 1.6 1.6 0 01.7.2.9.9 0 01.5.5.9.9 0 010 .6l.7-.2.7-.3 1.4-.4 1.5-.4.8-.2a1 1 0 01.8 0 .7.7 0 01.2.5.9.9 0 010 .4.7.7 0 01-.2.4.7.7 0 01-.5.1 7.1 7.1 0 00-2 .5l-2 .7-.6.2-.7.2a4 4 0 01-.8.1 1.5 1.5 0 01-.7 0 1 1 0 01-.5-.6 1.2 1.2 0 010-.8 8 8 0 00-1.2.2l-1 .3-.8.2-.8.3a6.9 6.9 0 01-.9.2 3 3 0 01-.7 0 1.2 1.2 0 01-.5-.1.8.8 0 01-.4-.5.8.8 0 010-.5 2.1 2.1 0 01.3-.4l.3-.5a.8.8 0 01.1-.6.6.6 0 01.6-.4zm20.3 1.5h-2.7a9.8 9.8 0 01-2.7-.3.5.5 0 01-.2 0 3.2 3.2 0 01-.4.8 3.6 3.6 0 01-.7.7 2.4 2.4 0 01-.8.4 1.6 1.6 0 01-.8 0 1 1 0 01-.6-.3 1.3 1.3 0 01-.3-.7 2 2 0 01.1-.7 2.3 2.3 0 01.4-.7 2 2 0 01.8-.6 1.5 1.5 0 011 0 .8.8 0 01.5-.6.7.7 0 01.8 0 3.2 3.2 0 00.8.4 4.8 4.8 0 001 .1h1.8a10.4 10.4 0 001.2 0 2.6 2.6 0 011 0 .7.7 0 01.5.4.8.8 0 010 .5.8.8 0 01-.2.4.7.7 0 01-.5.2zm-7.7.3a.5.5 0 01.3 0v-.3a.9.9 0 01-.2.1.4.4 0 00-.1.2zm40.3-10a4.4 4.4 0 00-1.4-.8 7.4 7.4 0 00-1.5-.4 8.7 8.7 0 00-1.6 0H547a20.6 20.6 0 00-4.1 1.2 31.4 31.4 0 00-7.4 4 22.3 22.3 0 00-3 2.8l-1.1 1.3a8.3 8.3 0 00-1 1.7 4.9 4.9 0 00-.4 1.7 2.6 2.6 0 00.5 1.7 2 2 0 001.1.7 6.1 6.1 0 001.6.2 10.7 10.7 0 001.6-.1l1.3-.2a30.2 30.2 0 005-1l5.1-1.7q2.5-1 5.1-1.7a32.7 32.7 0 015.2-1.1h.6a3.5 3.5 0 01.9 0 .9.9 0 01.5.3q.2.2-.2.7a.7.7 0 01-.4.3 4.3 4.3 0 01-.6.1h-.6l-.5.1a38.7 38.7 0 00-5 1.2l-5.1 1.7q-2.5.9-5.1 1.6a33 33 0 01-5.3 1l-1.6.2a9.3 9.3 0 01-1.7 0 6.5 6.5 0 01-1.7-.4 2.5 2.5 0 01-1.3-1 3.4 3.4 0 01-.8-1.7 5.2 5.2 0 01.1-2 7.8 7.8 0 01.8-1.8 11.6 11.6 0 011-1.6 22 22 0 013.8-3.7 34.5 34.5 0 014.4-2.9 32 32 0 014.8-2.2 16.6 16.6 0 015-1 10.3 10.3 0 012.4.2 6.2 6.2 0 012.1.8l.7.4a1 1 0 01.4.6.6.6 0 010 .4.8.8 0 01-.3.4.8.8 0 01-.4 0 .6.6 0 01-.4 0z" data-name="Caminho 10263"/><rect width="146" height="15" fill="#f5f6fa" data-name="Ret창ngulo 1301" rx="4" transform="translate(416 3102)"/><rect width="202" height="10" fill="#f5f6fa" data-name="Ret창ngulo 1302" rx="4" transform="translate(388 3129)"/></g></g></svg>